<svg width="23" height="23" viewBox="0 0 23 23" fill="none" xmlns="http://www.w3.org/2000/svg">
<rect x="0.756836" y="0.949219" width="22" height="22" rx="4" fill="#292929"/>
<path fill-rule="evenodd" clip-rule="evenodd" d="M7.59017 5.94922H15.9235C16.9335 5.94922 17.7568 6.77255 17.7568 7.78255V16.1159C17.7568 17.1259 16.9335 17.9492 15.9235 17.9492H7.59017C6.58017 17.9492 5.75684 17.1259 5.75684 16.1159V7.78255C5.75684 6.77255 6.58017 5.94922 7.59017 5.94922ZM15.9235 6.94922H7.59017C7.13017 6.94922 6.75684 7.32255 6.75684 7.78255V15.2426L9.3335 12.6659C9.66017 12.3426 10.1902 12.3426 10.5135 12.6659L11.4235 13.5759L14.1668 10.8326C14.4935 10.5092 15.0235 10.5092 15.3468 10.8326L16.7568 12.2426V7.78255C16.7568 7.32255 16.3835 6.94922 15.9235 6.94922ZM10.7568 9.61589C10.7568 10.3523 10.1599 10.9492 9.4235 10.9492C8.68712 10.9492 8.09017 10.3523 8.09017 9.61589C8.09017 8.87951 8.68712 8.28255 9.4235 8.28255C10.1599 8.28255 10.7568 8.87951 10.7568 9.61589Z" fill="white"/>
</svg>
