<svg width="23" height="23" viewBox="0 0 23 23" fill="none" xmlns="http://www.w3.org/2000/svg">
<rect x="0.488281" y="0.96875" width="22" height="22" rx="4" fill="#292929"/>
<g clip-path="url(#clip0_2025_48777)">
<path d="M15.5946 19.915C15.5307 19.915 15.468 19.8945 15.4139 19.8534C15.318 19.7814 15.2713 19.6606 15.2909 19.5385L15.5221 18.1276L14.5423 17.1291C14.4575 17.043 14.428 16.9171 14.4648 16.8002C14.5017 16.6832 14.5964 16.5997 14.7132 16.5817L16.0679 16.3761L16.674 15.0937C16.7256 14.9831 16.8313 14.915 16.9493 14.915C17.0673 14.915 17.1731 14.9831 17.2247 15.0937L17.8308 16.3761L19.1855 16.5817C19.3023 16.5997 19.3969 16.6832 19.4338 16.8002C19.4707 16.9171 19.44 17.043 19.3564 17.1291L18.3766 18.1276L18.6077 19.5372C18.6274 19.6593 18.5807 19.7788 18.4848 19.8521C18.3889 19.924 18.2659 19.933 18.1615 19.8765L16.9493 19.2108L15.7372 19.8765C15.6917 19.9009 15.6425 19.9138 15.5934 19.9138L15.5946 19.915Z" fill="white"/>
<path fill-rule="evenodd" clip-rule="evenodd" d="M15.6549 5.96875H7.32161C6.31161 5.96875 5.48828 6.79208 5.48828 7.80208V16.1354C5.48828 17.1454 6.31161 17.9688 7.32161 17.9688H13.9654L13.8302 17.8309L13.8292 17.83C13.4795 17.4743 13.3657 16.9611 13.5114 16.4994C13.6566 16.0388 14.0484 15.6723 14.5611 15.5934L14.5633 15.593L15.3915 15.4673L15.7694 14.6677C15.9808 14.2179 16.4321 13.915 16.9496 13.915C17.1411 13.915 17.3237 13.9566 17.4883 14.0317V7.80208C17.4883 6.79208 16.6649 5.96875 15.6549 5.96875ZM17.4883 15.6509L17.2249 15.0937C17.1733 14.9831 17.0676 14.915 16.9496 14.915C16.8315 14.915 16.7258 14.9831 16.6742 15.0937L16.0681 16.3761L14.7134 16.5817C14.5966 16.5997 14.5019 16.6832 14.4651 16.8002C14.4282 16.9171 14.4577 17.043 14.5425 17.1291L15.3664 17.9688H15.6549C16.6649 17.9688 17.4883 17.1454 17.4883 16.1354V15.6509ZM7.32161 6.96875H15.6549C16.1149 6.96875 16.4883 7.34208 16.4883 7.80208V12.2621L15.0783 10.8521C14.7549 10.5287 14.2249 10.5287 13.8983 10.8521L11.1549 13.5954L10.2449 12.6854C9.92162 12.3621 9.39161 12.3621 9.06495 12.6854L6.48828 15.2621V7.80208C6.48828 7.34208 6.86161 6.96875 7.32161 6.96875ZM9.15495 10.9688C9.89133 10.9688 10.4883 10.3718 10.4883 9.63542C10.4883 8.89904 9.89133 8.30208 9.15495 8.30208C8.41857 8.30208 7.82161 8.89904 7.82161 9.63542C7.82161 10.3718 8.41857 10.9688 9.15495 10.9688Z" fill="white"/>
</g>
<defs>
<clipPath id="clip0_2025_48777">
<rect width="16" height="16" fill="white" transform="translate(3.48828 3.96875)"/>
</clipPath>
</defs>
</svg>
