<svg width="23" height="23" viewBox="0 0 23 23" fill="none" xmlns="http://www.w3.org/2000/svg">
<rect x="0.756836" y="0.949219" width="22" height="22" rx="4" fill="#292929"/>
<path d="M5.42358 7.01465C5.42358 6.46236 5.8713 6.01465 6.42358 6.01465H15.7569C16.3092 6.01465 16.7569 6.46236 16.7569 7.01465V9.76465H14.7569V8.01465H12.0903V15.3486H12.1795C12.2431 15.5132 12.3403 15.6668 12.47 15.7987L12.471 15.7997L13.0943 16.4349L12.9451 17.3456L12.9446 17.3486H8.34026V15.3486H10.0903V8.01465H7.42358V9.76465H5.42358V7.01465Z" fill="white"/>
<path d="M13.1833 15.0979C13.0985 15.0118 13.069 14.8858 13.1059 14.7689C13.1427 14.652 13.2374 14.5684 13.3542 14.5505L14.7089 14.3449L15.315 13.0624C15.3666 12.9519 15.4723 12.8838 15.5904 12.8838C15.7084 12.8838 15.8141 12.9519 15.8657 13.0624L16.4718 14.3449L17.8265 14.5505C17.9433 14.5684 18.038 14.652 18.0749 14.7689C18.1117 14.8858 18.081 15.0118 17.9974 15.0979L17.0176 16.0963L17.2487 17.506C17.2684 17.6281 17.2217 17.7476 17.1258 17.8208C17.0299 17.8928 16.907 17.9018 16.8025 17.8452L15.5904 17.1796L14.3782 17.8452C14.3327 17.8697 14.2836 17.8825 14.2344 17.8825L14.2356 17.8838C14.1717 17.8838 14.109 17.8632 14.0549 17.8221C13.959 17.7501 13.9123 17.6294 13.932 17.5073L14.1631 16.0963L13.1833 15.0979Z" fill="white"/>
</svg>
