<svg width="23" height="23" viewBox="0 0 23 23" fill="none" xmlns="http://www.w3.org/2000/svg">
<rect x="0.756836" y="0.949219" width="22" height="22" rx="4" fill="#292929"/>
<path d="M8.75729 8.08252C6.6235 8.08252 4.89062 9.8154 4.89062 11.9492C4.89062 14.083 6.6235 15.8159 8.75729 15.8159H9.95729V14.4159H8.75729C7.39775 14.4159 6.29063 13.3087 6.29063 11.9492C6.29063 10.5896 7.39775 9.48252 8.75729 9.48252H9.95729V8.08252H8.75729Z" fill="white"/>
<path d="M14.7573 8.08252H13.5573V9.48252H14.7573C16.1168 9.48252 17.224 10.5896 17.224 11.9492C17.224 13.3087 16.1168 14.4159 14.7573 14.4159H13.5573V15.8159H14.7573C16.8911 15.8159 18.624 14.083 18.624 11.9492C18.624 9.8154 16.8911 8.08252 14.7573 8.08252Z" fill="white"/>
<path d="M14.2906 11.2492H9.22396V12.6492H14.2906V11.2492Z" fill="white"/>
</svg>
