<svg width="23" height="23" viewBox="0 0 23 23" fill="none" xmlns="http://www.w3.org/2000/svg">
<rect x="0.488281" y="0.96875" width="22" height="22" rx="4" fill="#292929"/>
<path fill-rule="evenodd" clip-rule="evenodd" d="M4.98682 7.96885C4.98682 7.47179 5.38976 7.06885 5.88682 7.06885H5.89304C6.3901 7.06885 6.79304 7.47179 6.79304 7.96885C6.79304 8.4659 6.3901 8.86885 5.89304 8.86885H5.88682C5.38976 8.86885 4.98682 8.4659 4.98682 7.96885ZM8.49421 7.96885C8.49421 7.47179 8.89715 7.06885 9.39421 7.06885H17.0902C17.5872 7.06885 17.9902 7.47179 17.9902 7.96885C17.9902 8.4659 17.5872 8.86885 17.0902 8.86885H9.39421C8.89715 8.86885 8.49421 8.4659 8.49421 7.96885ZM4.98682 11.9688C4.98682 11.4718 5.38976 11.0688 5.88682 11.0688H5.89304C6.3901 11.0688 6.79304 11.4718 6.79304 11.9688C6.79304 12.4659 6.3901 12.8688 5.89304 12.8688H5.88682C5.38976 12.8688 4.98682 12.4659 4.98682 11.9688ZM8.49421 11.9688C8.49421 11.4718 8.89715 11.0688 9.39421 11.0688H17.0902C17.5872 11.0688 17.9902 11.4718 17.9902 11.9688C17.9902 12.4659 17.5872 12.8688 17.0902 12.8688H9.39421C8.89715 12.8688 8.49421 12.4659 8.49421 11.9688ZM4.98682 15.9688C4.98682 15.4718 5.38976 15.0688 5.88682 15.0688H5.89304C6.3901 15.0688 6.79304 15.4718 6.79304 15.9688C6.79304 16.4659 6.3901 16.8688 5.89304 16.8688H5.88682C5.38976 16.8688 4.98682 16.4659 4.98682 15.9688ZM8.49421 15.9688C8.49421 15.4718 8.89715 15.0688 9.39421 15.0688H17.0902C17.5872 15.0688 17.9902 15.4718 17.9902 15.9688C17.9902 16.4659 17.5872 16.8688 17.0902 16.8688H9.39421C8.89715 16.8688 8.49421 16.4659 8.49421 15.9688Z" fill="white"/>
</svg>
