<svg width="23" height="23" viewBox="0 0 23 23" fill="none" xmlns="http://www.w3.org/2000/svg">
<rect x="0.756836" y="0.949219" width="22" height="22" rx="4" fill="#292929"/>
<path fill-rule="evenodd" clip-rule="evenodd" d="M7.52873 6.46875H13.3621C14.2458 6.46875 14.9662 7.18917 14.9662 8.07292V11.8675C14.9662 12.7513 14.2458 13.4717 13.3621 13.4717H8.58456L7.16998 14.8862C7.02998 15.0262 6.84331 15.0992 6.65373 15.0992C6.56039 15.0992 6.46414 15.0817 6.37373 15.0437C6.10248 14.93 5.92456 14.6646 5.92456 14.37V8.07292C5.92456 7.18917 6.64498 6.46875 7.52873 6.46875ZM15.8412 9.09375H15.9841C16.8679 9.09375 17.5883 9.81417 17.5883 10.6979V16.7004C17.5883 16.9979 17.4133 17.2604 17.1391 17.3742C17.0487 17.4121 16.9525 17.4296 16.8591 17.4296C16.6725 17.4296 16.4858 17.3567 16.3458 17.2167L15.2229 16.0938H11.6121C10.7283 16.0938 10.0079 15.3733 10.0079 14.4896V14.3408H13.3621C14.73 14.3408 15.8412 13.2296 15.8412 11.8617V9.09375Z" fill="white"/>
</svg>
