<svg width="23" height="23" viewBox="0 0 23 23" fill="none" xmlns="http://www.w3.org/2000/svg">
<rect x="0.756836" y="0.949219" width="22" height="22" rx="4" fill="#292929"/>
<path d="M11.7569 5.28259C8.81692 5.28259 6.42358 7.67593 6.42358 10.6159C6.42358 11.8593 6.86358 13.0726 7.66025 14.0293L11.1169 18.1793C11.2769 18.3693 11.5103 18.4793 11.7569 18.4793C12.0036 18.4793 12.2369 18.3693 12.3969 18.1793L15.8536 14.0293C16.6503 13.0726 17.0903 11.8626 17.0903 10.6159C17.0903 7.67593 14.6969 5.28259 11.7569 5.28259ZM11.7569 12.6159C10.6536 12.6159 9.75692 11.7193 9.75692 10.6159C9.75692 9.51259 10.6536 8.61593 11.7569 8.61593C12.8603 8.61593 13.7569 9.51259 13.7569 10.6159C13.7569 11.7193 12.8603 12.6159 11.7569 12.6159Z" fill="white"/>
</svg>
