<svg width="23" height="23" viewBox="0 0 23 23" fill="none" xmlns="http://www.w3.org/2000/svg">
<rect x="0.756836" y="0.949219" width="22" height="22" rx="4" fill="#292929"/>
<g clip-path="url(#clip0_2025_48777)">
<path d="M15.8634 19.8955C15.7995 19.8955 15.7368 19.8749 15.6827 19.8338C15.5868 19.7619 15.5401 19.6411 15.5597 19.519L15.7909 18.108L14.8111 17.1096C14.7263 17.0235 14.6967 16.8976 14.7336 16.7806C14.7705 16.6637 14.8652 16.5802 14.982 16.5622L16.3367 16.3566L16.9428 15.0741C16.9944 14.9636 17.1001 14.8955 17.2181 14.8955C17.3361 14.8955 17.4419 14.9636 17.4935 15.0741L18.0996 16.3566L19.4543 16.5622C19.5711 16.5802 19.6657 16.6637 19.7026 16.7806C19.7395 16.8976 19.7088 17.0235 19.6252 17.1096L18.6454 18.108L18.8765 19.5177C18.8962 19.6398 18.8495 19.7593 18.7536 19.8325C18.6577 19.9045 18.5347 19.9135 18.4303 19.857L17.2181 19.1913L16.006 19.857C15.9605 19.8814 15.9113 19.8942 15.8622 19.8942L15.8634 19.8955Z" fill="white"/>
<path fill-rule="evenodd" clip-rule="evenodd" d="M15.9235 5.94922H7.59017C6.58017 5.94922 5.75684 6.77255 5.75684 7.78255V16.1159C5.75684 17.1259 6.58017 17.9492 7.59017 17.9492H14.2339L14.0987 17.8114L14.0978 17.8105C13.7481 17.4548 13.6343 16.9416 13.7799 16.4798C13.9252 16.0193 14.3169 15.6528 14.8297 15.5738L14.8319 15.5735L15.6601 15.4478L16.038 14.6482C16.2494 14.1984 16.7007 13.8955 17.2181 13.8955C17.4097 13.8955 17.5922 13.937 17.7568 14.0121V7.78255C17.7568 6.77255 16.9335 5.94922 15.9235 5.94922ZM17.7568 15.6314L17.4935 15.0741C17.4418 14.9636 17.3361 14.8955 17.2181 14.8955C17.1001 14.8955 16.9944 14.9636 16.9427 15.0741L16.3367 16.3566L14.9819 16.5622C14.8652 16.5802 14.7705 16.6637 14.7336 16.7806C14.6967 16.8976 14.7262 17.0235 14.8111 17.1096L15.635 17.9492H15.9235C16.9335 17.9492 17.7568 17.1259 17.7568 16.1159V15.6314ZM7.59017 6.94922H15.9235C16.3835 6.94922 16.7568 7.32255 16.7568 7.78255V12.2426L15.3468 10.8326C15.0235 10.5092 14.4935 10.5092 14.1668 10.8326L11.4235 13.5759L10.5135 12.6659C10.1902 12.3426 9.66017 12.3426 9.3335 12.6659L6.75684 15.2426V7.78255C6.75684 7.32255 7.13017 6.94922 7.59017 6.94922ZM9.4235 10.9492C10.1599 10.9492 10.7568 10.3523 10.7568 9.61589C10.7568 8.87951 10.1599 8.28255 9.4235 8.28255C8.68712 8.28255 8.09017 8.87951 8.09017 9.61589C8.09017 10.3523 8.68712 10.9492 9.4235 10.9492Z" fill="white"/>
</g>
<defs>
<clipPath id="clip0_2025_48777">
<rect width="16" height="16" fill="white" transform="translate(3.75684 3.94922)"/>
</clipPath>
</defs>
</svg>
