<svg width="23" height="22" viewBox="0 0 23 22" fill="none" xmlns="http://www.w3.org/2000/svg">
<rect x="0.756836" width="22" height="22" rx="4" fill="#6C4CFF"/>
<path d="M8.75729 7.1333C6.6235 7.1333 4.89062 8.86618 4.89062 11C4.89062 13.1338 6.6235 14.8666 8.75729 14.8666H9.95729V13.4666H8.75729C7.39775 13.4666 6.29063 12.3595 6.29063 11C6.29063 9.64042 7.39775 8.5333 8.75729 8.5333H9.95729V7.1333H8.75729Z" fill="white"/>
<path d="M14.7573 7.1333H13.5573V8.5333H14.7573C16.1168 8.5333 17.224 9.64042 17.224 11C17.224 12.3595 16.1168 13.4666 14.7573 13.4666H13.5573V14.8666H14.7573C16.8911 14.8666 18.624 13.1338 18.624 11C18.624 8.86618 16.8911 7.1333 14.7573 7.1333Z" fill="white"/>
<path d="M14.2906 10.3H9.22396V11.7H14.2906V10.3Z" fill="white"/>
</svg>
