<svg width="23" height="23" viewBox="0 0 23 23" fill="none" xmlns="http://www.w3.org/2000/svg">
<path fill-rule="evenodd" clip-rule="evenodd" d="M6.61455 3.23573C6.32662 2.94779 5.85978 2.94779 5.57184 3.23573C5.28391 3.52366 5.28391 3.9905 5.57184 4.27844L7.91752 6.62411L3.44137 11.1002L3.43621 11.1055C3.00091 11.5496 2.75708 12.1467 2.75708 12.7685C2.75708 13.3904 3.00088 13.9875 3.43618 14.4316L7.70139 18.6968C8.64471 19.6401 10.0946 19.6401 11.0379 18.6968L16.4311 13.3036C16.4407 13.2945 16.45 13.2852 16.4591 13.2756L18.0833 11.6514C18.3712 11.3635 18.3712 10.8966 18.0833 10.6087L11.5295 4.05488C11.3912 3.9166 11.2037 3.83892 11.0081 3.83892C10.8126 3.83892 10.625 3.9166 10.4868 4.05488L8.96023 5.5814L6.61455 3.23573ZM16.5192 11.1301L15.6182 12.0311H4.59593L8.96024 7.66683L9.66799 8.37458C9.95593 8.66252 10.4228 8.66252 10.7107 8.37458C10.9986 8.08665 10.9986 7.61981 10.7107 7.33187L10.0029 6.62412L11.0081 5.61894L16.5192 11.1301Z" fill="#292929"/>
<path d="M18.3813 14.4888C18.7361 14.4888 19.0406 14.7415 19.106 15.0903C19.1866 15.5199 19.4442 15.8539 19.8337 16.3587L19.8767 16.4145C20.2491 16.8976 20.7571 17.5702 20.7571 18.503C20.7571 19.1331 20.5068 19.7374 20.0612 20.183C19.6157 20.6285 19.0114 20.8788 18.3813 20.8788C17.7512 20.8788 17.1469 20.6285 16.7014 20.183C16.2559 19.7374 16.0056 19.1331 16.0056 18.503C16.0056 17.5702 16.5136 16.8976 16.886 16.4145L16.929 16.3587C17.3184 15.8539 17.5761 15.5199 17.6566 15.0903C17.722 14.7415 18.0265 14.4888 18.3813 14.4888Z" fill="#292929"/>
</svg>
