<svg width="23" height="23" viewBox="0 0 23 23" fill="none" xmlns="http://www.w3.org/2000/svg">
<rect x="0.756836" y="0.949219" width="22" height="22" rx="4" fill="#292929"/>
<g clip-path="url(#clip0_2025_48769)">
<path d="M13.7568 6.61584H6.4235C6.05531 6.61584 5.75684 6.91432 5.75684 7.28251V10.6158C5.75684 10.984 6.05531 11.2825 6.4235 11.2825H13.7568C14.125 11.2825 14.4235 10.984 14.4235 10.6158V7.28251C14.4235 6.91432 14.125 6.61584 13.7568 6.61584Z" fill="white"/>
<path fill-rule="evenodd" clip-rule="evenodd" d="M19.272 9.94924L17.272 11.9492L19.272 13.9492L18.4235 14.7978L15.9992 12.3735C15.7649 12.1392 15.7649 11.7593 15.9992 11.525L18.4235 9.10071L19.272 9.94924Z" fill="white"/>
<path d="M13.7568 12.6158H6.4235C6.05531 12.6158 5.75684 12.9143 5.75684 13.2825V16.6158C5.75684 16.984 6.05531 17.2825 6.4235 17.2825H13.7568C14.125 17.2825 14.4235 16.984 14.4235 16.6158V13.2825C14.4235 12.9143 14.125 12.6158 13.7568 12.6158Z" fill="white"/>
</g>
<defs>
<clipPath id="clip0_2025_48769">
<rect width="16" height="16" fill="white" transform="translate(3.75684 3.94922)"/>
</clipPath>
</defs>
</svg>
