<svg width="23" height="23" viewBox="0 0 23 23" fill="none" xmlns="http://www.w3.org/2000/svg">
<rect x="0.756836" y="0.949219" width="22" height="22" rx="4" fill="#292929"/>
<path d="M14.8606 5.96777C13.7336 5.96777 12.8148 6.8866 12.8148 8.01361C12.8148 8.17942 12.8348 8.3436 12.8736 8.49989L9.54375 10.4538C9.17916 10.1132 8.68858 9.90527 8.15228 9.90527C7.02527 9.90527 6.10645 10.8241 6.10645 11.9511C6.10645 13.0781 7.02527 13.9969 8.15228 13.9969C8.68918 13.9969 9.17721 13.7886 9.54341 13.4482L12.8736 15.4023C12.8349 15.5576 12.8148 15.7198 12.8148 15.8857C12.8148 17.0127 13.7336 17.9315 14.8606 17.9315C15.9876 17.9315 16.9064 17.0127 16.9064 15.8857C16.9064 14.7587 15.9876 13.8399 14.8606 13.8399C14.3237 13.8399 13.8357 14.0482 13.4695 14.3886L10.1393 12.4345C10.1781 12.2782 10.1981 12.114 10.1981 11.9482C10.1981 11.7823 10.178 11.6201 10.1393 11.4648L13.4695 9.51073C13.8331 9.84868 14.3211 10.0594 14.8606 10.0594C15.9876 10.0594 16.9064 9.14062 16.9064 8.01361C16.9064 6.8866 15.9876 5.96777 14.8606 5.96777Z" fill="white"/>
</svg>
