<svg width="23" height="23" viewBox="0 0 23 23" fill="none" xmlns="http://www.w3.org/2000/svg">
<rect x="0.756836" y="0.949219" width="22" height="22" rx="4" fill="#292929"/>
<path d="M6.25684 7.94922C6.25684 7.12079 6.92841 6.44922 7.75684 6.44922H15.7568C16.5853 6.44922 17.2568 7.12079 17.2568 7.94922V15.9492C17.2568 16.7776 16.5853 17.4492 15.7568 17.4492H7.75684C6.92841 17.4492 6.25684 16.7776 6.25684 15.9492V7.94922ZM11.3115 9.11717C11.0047 8.9126 10.6101 8.89353 10.285 9.06754C9.95982 9.24156 9.75684 9.58042 9.75684 9.94922V13.9492C9.75684 14.318 9.95982 14.6569 10.285 14.8309C10.6101 15.0049 11.0047 14.9858 11.3115 14.7813L14.3115 12.7813C14.5897 12.5958 14.7568 12.2836 14.7568 11.9492C14.7568 11.6149 14.5897 11.3026 14.3115 11.1172L11.3115 9.11717Z" fill="white" stroke="white"/>
</svg>
