<svg width="23" height="22" viewBox="0 0 23 22" fill="none" xmlns="http://www.w3.org/2000/svg">
<rect x="0.756836" width="22" height="22" rx="4" fill="#6C4CFF"/>
<path d="M16.7424 12.0966L15.1382 11.6679C14.9003 11.6043 14.6431 11.6735 14.4688 11.8477L13.3376 12.979C11.7914 12.2128 10.5413 10.9626 9.7751 9.4165L10.9064 8.28525C11.0806 8.111 11.1498 7.85377 11.0861 7.61591L10.6574 6.01169C10.5772 5.71021 10.3006 5.5 9.99084 5.5H7.7809C7.34389 5.5 6.92624 5.68808 6.63582 6.01446C6.35093 6.3353 6.2154 6.76125 6.26796 7.18166C6.84879 12.0801 10.6768 15.908 15.5752 16.4889C15.6333 16.4972 15.6913 16.4999 15.7494 16.4999C16.1118 16.4999 16.4686 16.3672 16.7424 16.121C17.0688 15.8306 17.2568 15.4129 17.2568 14.9759V12.766C17.2568 12.4534 17.0466 12.1796 16.7451 12.0966H16.7424Z" fill="white"/>
</svg>
