<svg width="23" height="22" viewBox="0 0 23 22" fill="none" xmlns="http://www.w3.org/2000/svg">
<rect x="0.756836" width="22" height="22" rx="4" fill="#6C4CFF"/>
<path fill-rule="evenodd" clip-rule="evenodd" d="M15.0938 7.66659C15.0938 9.50753 13.6014 10.9999 11.7604 10.9999C9.91947 10.9999 8.42708 9.50753 8.42708 7.66659C8.42708 5.82564 9.91947 4.33325 11.7604 4.33325C13.6014 4.33325 15.0938 5.82564 15.0938 7.66659ZM17.147 14.2399L17.4043 15.0823C17.7969 16.3676 16.8354 17.6666 15.4915 17.6666H8.02243C6.67853 17.6666 5.71708 16.3676 6.10966 15.0823L6.36698 14.2399C6.77698 12.8999 7.99365 11.9999 9.39698 11.9999H14.117C15.5203 11.9999 16.737 12.8999 17.147 14.2399Z" fill="white"/>
</svg>
