<svg width="23" height="22" viewBox="0 0 23 22" fill="none" xmlns="http://www.w3.org/2000/svg">
<rect x="0.756836" width="22" height="22" rx="4" fill="#6C4CFF"/>
<path d="M8.08321 17.3933C7.90987 17.3933 7.73987 17.34 7.59321 17.2333C7.33321 17.0467 7.20654 16.7333 7.25987 16.4167L7.88654 12.7567L5.22987 10.1667C4.99987 9.94334 4.91987 9.61667 5.01987 9.31334C5.11987 9.01001 5.37654 8.79334 5.69321 8.74667L9.36654 8.21334L11.0099 4.88667C11.1499 4.60001 11.4365 4.42334 11.7565 4.42334C12.0765 4.42334 12.3632 4.60001 12.5032 4.88667L14.1465 8.21334L17.8199 8.74667C18.1365 8.79334 18.3932 9.01001 18.4932 9.31334C18.5932 9.61667 18.5099 9.94334 18.2832 10.1667L15.6265 12.7567L16.2532 16.4133C16.3065 16.73 16.1799 17.04 15.9199 17.23C15.6599 17.4167 15.3265 17.44 15.0432 17.2933L11.7565 15.5667L8.46987 17.2933C8.34654 17.3567 8.21321 17.39 8.07987 17.39L8.08321 17.3933Z" fill="white"/>
</svg>
