<svg width="23" height="22" viewBox="0 0 23 22" fill="none" xmlns="http://www.w3.org/2000/svg">
<rect x="0.756836" width="22" height="22" rx="4" fill="#6C4CFF"/>
<path fill-rule="evenodd" clip-rule="evenodd" d="M7.59017 5H15.9235C16.9335 5 17.7568 5.82333 17.7568 6.83333V15.1667C17.7568 16.1767 16.9335 17 15.9235 17H7.59017C6.58017 17 5.75684 16.1767 5.75684 15.1667V6.83333C5.75684 5.82333 6.58017 5 7.59017 5ZM15.9235 6H7.59017C7.13017 6 6.75684 6.37333 6.75684 6.83333V14.2933L9.3335 11.7167C9.66017 11.3933 10.1902 11.3933 10.5135 11.7167L11.4235 12.6267L14.1668 9.88333C14.4935 9.56 15.0235 9.56 15.3468 9.88333L16.7568 11.2933V6.83333C16.7568 6.37333 16.3835 6 15.9235 6ZM10.7568 8.66667C10.7568 9.40305 10.1599 10 9.4235 10C8.68712 10 8.09017 9.40305 8.09017 8.66667C8.09017 7.93029 8.68712 7.33333 9.4235 7.33333C10.1599 7.33333 10.7568 7.93029 10.7568 8.66667Z" fill="white"/>
</svg>
