<svg width="23" height="22" viewBox="0 0 23 22" fill="none" xmlns="http://www.w3.org/2000/svg">
<rect x="0.756836" width="22" height="22" rx="4" fill="#6C4CFF"/>
<g clip-path="url(#clip0_29_50711)">
<path d="M15.8631 18.9463C15.7992 18.9463 15.7365 18.9257 15.6824 18.8846C15.5865 18.8126 15.5398 18.6919 15.5595 18.5698L15.7906 17.1588L14.8108 16.1604C14.726 16.0743 14.6965 15.9483 14.7334 15.8314C14.7703 15.7145 14.8649 15.6309 14.9817 15.613L16.3364 15.4074L16.9425 14.1249C16.9941 14.0144 17.0999 13.9463 17.2179 13.9463C17.3359 13.9463 17.4416 14.0144 17.4933 14.1249L18.0993 15.4074L19.454 15.613C19.5708 15.6309 19.6655 15.7145 19.7024 15.8314C19.7393 15.9483 19.7085 16.0743 19.6249 16.1604L18.6451 17.1588L18.8763 18.5685C18.8959 18.6906 18.8492 18.8101 18.7533 18.8833C18.6574 18.9553 18.5345 18.9643 18.43 18.9077L17.2179 18.2421L16.0058 18.9077C15.9603 18.9322 15.9111 18.945 15.8619 18.945L15.8631 18.9463Z" fill="white"/>
<path fill-rule="evenodd" clip-rule="evenodd" d="M15.9235 5H7.59017C6.58017 5 5.75684 5.82333 5.75684 6.83333V15.1667C5.75684 16.1767 6.58017 17 7.59017 17H14.2339L14.0987 16.8622L14.0978 16.8612C13.7481 16.5056 13.6343 15.9924 13.7799 15.5306C13.9252 15.0701 14.3169 14.7036 14.8297 14.6246L14.8319 14.6243L15.6601 14.4986L16.038 13.699C16.2494 13.2491 16.7007 12.9463 17.2181 12.9463C17.4097 12.9463 17.5922 12.9878 17.7568 13.0629V6.83333C17.7568 5.82333 16.9335 5 15.9235 5ZM17.7568 14.6822L17.4935 14.1249C17.4418 14.0144 17.3361 13.9463 17.2181 13.9463C17.1001 13.9463 16.9944 14.0144 16.9427 14.1249L16.3367 15.4074L14.9819 15.613C14.8652 15.6309 14.7705 15.7145 14.7336 15.8314C14.6967 15.9483 14.7262 16.0743 14.8111 16.1604L15.635 17H15.9235C16.9335 17 17.7568 16.1767 17.7568 15.1667V14.6822ZM7.59017 6H15.9235C16.3835 6 16.7568 6.37333 16.7568 6.83333V11.2933L15.3468 9.88333C15.0235 9.56 14.4935 9.56 14.1668 9.88333L11.4235 12.6267L10.5135 11.7167C10.1902 11.3933 9.66017 11.3933 9.3335 11.7167L6.75684 14.2933V6.83333C6.75684 6.37333 7.13017 6 7.59017 6ZM9.4235 10C10.1599 10 10.7568 9.40305 10.7568 8.66667C10.7568 7.93029 10.1599 7.33333 9.4235 7.33333C8.68712 7.33333 8.09017 7.93029 8.09017 8.66667C8.09017 9.40305 8.68712 10 9.4235 10Z" fill="white"/>
</g>
<defs>
<clipPath id="clip0_29_50711">
<rect width="16" height="16" fill="white" transform="translate(3.75684 3)"/>
</clipPath>
</defs>
</svg>
