<svg width="23" height="23" viewBox="0 0 23 23" fill="none" xmlns="http://www.w3.org/2000/svg">
<rect x="0.488281" y="0.96875" width="22" height="22" rx="4" fill="#292929"/>
<path d="M5.15479 7.03418C5.15479 6.48189 5.6025 6.03418 6.15479 6.03418H15.4881C16.0404 6.03418 16.4881 6.48189 16.4881 7.03418V9.78418H14.4881V8.03418H11.8215V15.3682H11.9107C11.9743 15.5328 12.0715 15.6864 12.2012 15.8183L12.2022 15.8192L12.8255 16.4545L12.6763 17.3652L12.6759 17.3682H8.07146V15.3682H9.82146V8.03418H7.15479V9.78418H5.15479V7.03418Z" fill="white"/>
<path d="M12.9145 15.1174C12.8297 15.0313 12.8002 14.9054 12.8371 14.7884C12.8739 14.6715 12.9686 14.588 13.0854 14.57L14.4401 14.3644L15.0462 13.0819C15.0978 12.9714 15.2035 12.9033 15.3216 12.9033C15.4396 12.9033 15.5453 12.9714 15.5969 13.0819L16.203 14.3644L17.5577 14.57C17.6745 14.588 17.7692 14.6715 17.8061 14.7884C17.8429 14.9054 17.8122 15.0313 17.7286 15.1174L16.7488 16.1159L16.9799 17.5255C16.9996 17.6476 16.9529 17.7671 16.857 17.8404C16.7611 17.9123 16.6382 17.9213 16.5337 17.8648L15.3216 17.1991L14.1094 17.8648C14.0639 17.8892 14.0148 17.902 13.9656 17.902L13.9668 17.9033C13.9029 17.9033 13.8402 17.8828 13.7861 17.8416C13.6902 17.7697 13.6435 17.6489 13.6632 17.5268L13.8943 16.1159L12.9145 15.1174Z" fill="white"/>
</svg>
