<svg width="23" height="23" viewBox="0 0 23 23" fill="none" xmlns="http://www.w3.org/2000/svg">
<rect x="0.488281" y="0.96875" width="22" height="22" rx="4" fill="#292929"/>
<path d="M15.6549 5.96867H15.1549V5.302H14.1549V5.96867H8.82161V5.302H7.82161V5.96867H7.32161C6.31161 5.96867 5.48828 6.792 5.48828 7.802V16.1353C5.48828 17.1453 6.31161 17.9687 7.32161 17.9687H15.6549C16.6649 17.9687 17.4883 17.1453 17.4883 16.1353V7.802C17.4883 6.792 16.6649 5.96867 15.6549 5.96867ZM14.1549 6.96867H15.1549V7.96867H14.1549V6.96867ZM7.82161 6.96867H8.82161V7.96867H7.82161V6.96867ZM16.4883 16.1353C16.4883 16.5953 16.1149 16.9687 15.6549 16.9687H7.32161C6.86161 16.9687 6.48828 16.5953 6.48828 16.1353V9.63534H16.4883V16.1353Z" fill="white"/>
</svg>
