<svg width="23" height="22" viewBox="0 0 23 22" fill="none" xmlns="http://www.w3.org/2000/svg">
<rect x="0.756836" width="22" height="22" rx="4" fill="#6C4CFF"/>
<path d="M5.42383 6.06543C5.42383 5.51314 5.87154 5.06543 6.42383 5.06543H15.7572C16.3094 5.06543 16.7572 5.51314 16.7572 6.06543V8.81543H14.7572V7.06543H12.0905V14.3994H12.1797C12.2433 14.564 12.3406 14.7176 12.4703 14.8495L12.4712 14.8505L13.0946 15.4857L12.9454 16.3964L12.9449 16.3994H8.3405V14.3994H10.0905V7.06543H7.42383V8.81543H5.42383V6.06543Z" fill="white"/>
<path d="M13.1836 14.1487C13.0987 14.0626 13.0692 13.9366 13.1061 13.8197C13.143 13.7028 13.2377 13.6192 13.3544 13.6012L14.7092 13.3956L15.3152 12.1132C15.3669 12.0027 15.4726 11.9346 15.5906 11.9346C15.7086 11.9346 15.8143 12.0027 15.866 12.1132L16.472 13.3956L17.8268 13.6012C17.9436 13.6192 18.0382 13.7028 18.0751 13.8197C18.112 13.9366 18.0812 14.0626 17.9977 14.1487L17.0179 15.1471L17.249 16.5568C17.2687 16.6789 17.2219 16.7984 17.126 16.8716C17.0302 16.9436 16.9072 16.9526 16.8027 16.896L15.5906 16.2304L14.3785 16.896C14.333 16.9204 14.2838 16.9333 14.2346 16.9333L14.2359 16.9346C14.1719 16.9346 14.1093 16.914 14.0552 16.8729C13.9593 16.8009 13.9126 16.6801 13.9322 16.5581L14.1633 15.1471L13.1836 14.1487Z" fill="white"/>
</svg>
