<svg width="23" height="22" viewBox="0 0 23 22" fill="none" xmlns="http://www.w3.org/2000/svg">
<rect x="0.756836" width="22" height="22" rx="4" fill="#6C4CFF"/>
<path d="M6.25684 7C6.25684 6.17157 6.92841 5.5 7.75684 5.5H15.7568C16.5853 5.5 17.2568 6.17157 17.2568 7V15C17.2568 15.8284 16.5853 16.5 15.7568 16.5H7.75684C6.92841 16.5 6.25684 15.8284 6.25684 15V7ZM11.3115 8.16795C11.0047 7.96338 10.6101 7.94431 10.285 8.11833C9.95982 8.29235 9.75684 8.63121 9.75684 9V13C9.75684 13.3688 9.95982 13.7077 10.285 13.8817C10.6101 14.0557 11.0047 14.0366 11.3115 13.8321L14.3115 11.8321C14.5897 11.6466 14.7568 11.3344 14.7568 11C14.7568 10.6656 14.5897 10.3534 14.3115 10.168L11.3115 8.16795Z" fill="white" stroke="white"/>
</svg>
