<svg width="23" height="23" viewBox="0 0 23 23" fill="none" xmlns="http://www.w3.org/2000/svg">
<rect x="0.756836" y="0.949219" width="22" height="22" rx="4" fill="#292929"/>
<path d="M16.7424 13.0459L15.1382 12.6172C14.9003 12.5535 14.6431 12.6227 14.4688 12.7969L13.3376 13.9282C11.7914 13.162 10.5413 11.9119 9.7751 10.3657L10.9064 9.23447C11.0806 9.06022 11.1498 8.80299 11.0861 8.56512L10.6574 6.96091C10.5772 6.65943 10.3006 6.44922 9.99084 6.44922H7.7809C7.34389 6.44922 6.92624 6.6373 6.63582 6.96367C6.35093 7.28452 6.2154 7.71046 6.26796 8.13088C6.84879 13.0293 10.6768 16.8573 15.5752 17.4381C15.6333 17.4464 15.6913 17.4492 15.7494 17.4492C16.1118 17.4492 16.4686 17.3164 16.7424 17.0702C17.0688 16.7798 17.2568 16.3622 17.2568 15.9252V13.7152C17.2568 13.4027 17.0466 13.1288 16.7451 13.0459H16.7424Z" fill="white"/>
</svg>
