<svg width="23" height="22" viewBox="0 0 23 22" fill="none" xmlns="http://www.w3.org/2000/svg">
<rect x="0.756836" width="22" height="22" rx="4" fill="#6C4CFF"/>
<path d="M11.7572 4.33325C8.81716 4.33325 6.42383 6.72659 6.42383 9.66658C6.42383 10.9099 6.86383 12.1233 7.66049 13.0799L11.1172 17.2299C11.2772 17.4199 11.5105 17.5299 11.7572 17.5299C12.0038 17.5299 12.2372 17.4199 12.3972 17.2299L15.8538 13.0799C16.6505 12.1233 17.0905 10.9133 17.0905 9.66658C17.0905 6.72659 14.6972 4.33325 11.7572 4.33325ZM11.7572 11.6666C10.6538 11.6666 9.75716 10.7699 9.75716 9.66658C9.75716 8.56325 10.6538 7.66659 11.7572 7.66659C12.8605 7.66659 13.7572 8.56325 13.7572 9.66658C13.7572 10.7699 12.8605 11.6666 11.7572 11.6666Z" fill="white"/>
</svg>
