<svg width="23" height="22" viewBox="0 0 23 22" fill="none" xmlns="http://www.w3.org/2000/svg">
<rect x="0.756836" width="22" height="22" rx="4" fill="#6C4CFF"/>
<path fill-rule="evenodd" clip-rule="evenodd" d="M7.52897 5.51953H13.3623C14.2461 5.51953 14.9665 6.23995 14.9665 7.1237V10.9183C14.9665 11.802 14.2461 12.5224 13.3623 12.5224H8.5848L7.17022 13.937C7.03022 14.077 6.84355 14.1499 6.65397 14.1499C6.56064 14.1499 6.46439 14.1324 6.37397 14.0945C6.10272 13.9808 5.9248 13.7154 5.9248 13.4208V7.1237C5.9248 6.23995 6.64522 5.51953 7.52897 5.51953ZM15.8415 8.14453H15.9844C16.8681 8.14453 17.5886 8.86495 17.5886 9.7487V15.7512C17.5886 16.0487 17.4136 16.3112 17.1394 16.4249C17.049 16.4629 16.9527 16.4804 16.8594 16.4804C16.6727 16.4804 16.4861 16.4074 16.3461 16.2674L15.2231 15.1445H11.6123C10.7286 15.1445 10.0081 14.4241 10.0081 13.5404V13.3916H13.3623C14.7302 13.3916 15.8415 12.2804 15.8415 10.9124V8.14453Z" fill="white"/>
</svg>
