<svg width="23" height="22" viewBox="0 0 23 22" fill="none" xmlns="http://www.w3.org/2000/svg">
<rect x="0.756836" width="22" height="22" rx="4" fill="#6C4CFF"/>
<g clip-path="url(#clip0_29_50703)">
<path d="M13.7568 5.66675H6.4235C6.05531 5.66675 5.75684 5.96522 5.75684 6.33341V9.66675C5.75684 10.0349 6.05531 10.3334 6.4235 10.3334H13.7568C14.125 10.3334 14.4235 10.0349 14.4235 9.66675V6.33341C14.4235 5.96522 14.125 5.66675 13.7568 5.66675Z" fill="white"/>
<path fill-rule="evenodd" clip-rule="evenodd" d="M19.2718 8.9999L17.2718 10.9999L19.2718 12.9999L18.4232 13.8484L15.999 11.4242C15.7647 11.1898 15.7647 10.8099 15.999 10.5756L18.4232 8.15137L19.2718 8.9999Z" fill="white"/>
<path d="M13.7568 11.6667H6.4235C6.05531 11.6667 5.75684 11.9652 5.75684 12.3334V15.6667C5.75684 16.0349 6.05531 16.3334 6.4235 16.3334H13.7568C14.125 16.3334 14.4235 16.0349 14.4235 15.6667V12.3334C14.4235 11.9652 14.125 11.6667 13.7568 11.6667Z" fill="white"/>
</g>
<defs>
<clipPath id="clip0_29_50703">
<rect width="16" height="16" fill="white" transform="translate(3.75684 3)"/>
</clipPath>
</defs>
</svg>
