<svg width="23" height="22" viewBox="0 0 23 22" fill="none" xmlns="http://www.w3.org/2000/svg">
<rect x="0.756836" width="22" height="22" rx="4" fill="#6C4CFF"/>
<path d="M14.8606 5.01855C13.7336 5.01855 12.8148 5.93738 12.8148 7.06439C12.8148 7.2302 12.8348 7.39438 12.8736 7.55067L9.54375 9.50457C9.17916 9.16396 8.68858 8.95606 8.15228 8.95606C7.02527 8.95606 6.10645 9.87488 6.10645 11.0019C6.10645 12.1289 7.02527 13.0477 8.15228 13.0477C8.68918 13.0477 9.17721 12.8394 9.54341 12.499L12.8736 14.4531C12.8349 14.6084 12.8148 14.7706 12.8148 14.9365C12.8148 16.0635 13.7336 16.9823 14.8606 16.9823C15.9876 16.9823 16.9064 16.0635 16.9064 14.9365C16.9064 13.8095 15.9876 12.8906 14.8606 12.8906C14.3237 12.8906 13.8357 13.099 13.4695 13.4394L10.1393 11.4853C10.1781 11.329 10.1981 11.1648 10.1981 10.999C10.1981 10.8331 10.178 10.6709 10.1393 10.5156L13.4695 8.56151C13.8331 8.89947 14.3211 9.11022 14.8606 9.11022C15.9876 9.11022 16.9064 8.1914 16.9064 7.06439C16.9064 5.93738 15.9876 5.01855 14.8606 5.01855Z" fill="white"/>
</svg>
