<svg width="23" height="23" viewBox="0 0 23 23" fill="none" xmlns="http://www.w3.org/2000/svg">
<rect x="0.756836" y="0.949219" width="22" height="22" rx="4" fill="#292929"/>
<path d="M8.08345 18.3426C7.91012 18.3426 7.74012 18.2892 7.59345 18.1826C7.33345 17.9959 7.20678 17.6826 7.26012 17.3659L7.88678 13.7059L5.23012 11.1159C5.00012 10.8926 4.92012 10.5659 5.02012 10.2626C5.12012 9.95923 5.37678 9.74256 5.69345 9.69589L9.36678 9.16256L11.0101 5.83589C11.1501 5.54923 11.4368 5.37256 11.7568 5.37256C12.0768 5.37256 12.3635 5.54923 12.5034 5.83589L14.1468 9.16256L17.8201 9.69589C18.1368 9.74256 18.3934 9.95923 18.4934 10.2626C18.5934 10.5659 18.5101 10.8926 18.2835 11.1159L15.6268 13.7059L16.2535 17.3626C16.3068 17.6792 16.1801 17.9892 15.9201 18.1792C15.6601 18.3659 15.3268 18.3892 15.0435 18.2426L11.7568 16.5159L8.47012 18.2426C8.34678 18.3059 8.21345 18.3392 8.08012 18.3392L8.08345 18.3426Z" fill="white"/>
</svg>
