<svg width="22" height="23" viewBox="0 0 22 23" fill="none" xmlns="http://www.w3.org/2000/svg">
<rect y="0.797363" width="22" height="22" rx="4" fill="#6C4CFF"/>
<path d="M15.1667 5.79728H14.6667V5.13062H13.6667V5.79728H8.33333V5.13062H7.33333V5.79728H6.83333C5.82333 5.79728 5 6.62062 5 7.63062V15.9639C5 16.9739 5.82333 17.7973 6.83333 17.7973H15.1667C16.1767 17.7973 17 16.9739 17 15.9639V7.63062C17 6.62062 16.1767 5.79728 15.1667 5.79728ZM13.6667 6.79728H14.6667V7.79728H13.6667V6.79728ZM7.33333 6.79728H8.33333V7.79728H7.33333V6.79728ZM16 15.9639C16 16.4239 15.6267 16.7973 15.1667 16.7973H6.83333C6.37333 16.7973 6 16.4239 6 15.9639V9.46395H16V15.9639Z" fill="white"/>
</svg>
