<svg width="23" height="23" viewBox="0 0 23 23" fill="none" xmlns="http://www.w3.org/2000/svg">
<rect x="0.756836" y="0.949219" width="22" height="22" rx="4" fill="#292929"/>
<path fill-rule="evenodd" clip-rule="evenodd" d="M15.0935 8.61593C15.0935 10.4569 13.6011 11.9493 11.7602 11.9493C9.91922 11.9493 8.42684 10.4569 8.42684 8.61593C8.42684 6.77498 9.91922 5.28259 11.7602 5.28259C13.6011 5.28259 15.0935 6.77498 15.0935 8.61593ZM17.1467 15.1893L17.404 16.0317C17.7966 17.317 16.8352 18.6159 15.4913 18.6159H8.02218C6.67829 18.6159 5.71684 17.317 6.10942 16.0317L6.36674 15.1893C6.77674 13.8493 7.9934 12.9493 9.39674 12.9493H14.1167C15.5201 12.9493 16.7367 13.8493 17.1467 15.1893Z" fill="white"/>
</svg>
