<svg width="23" height="23" viewBox="0 0 23 23" fill="none" xmlns="http://www.w3.org/2000/svg">
<path fill-rule="evenodd" clip-rule="evenodd" d="M6.35747 2.63001C6.06954 2.34208 5.6027 2.34208 5.31476 2.63001C5.02683 2.91795 5.02683 3.38479 5.31476 3.67272L7.66044 6.0184L3.18429 10.4945L3.17913 10.4998C2.74383 10.9439 2.5 11.5409 2.5 12.1628C2.5 12.7847 2.7438 13.3818 3.1791 13.8259L7.44431 18.0911C8.38763 19.0344 9.83754 19.0344 10.7809 18.0911L16.1741 12.6979C16.1836 12.6888 16.1929 12.6795 16.202 12.6699L17.8262 11.0457C18.1142 10.7578 18.1142 10.2909 17.8262 10.003L11.2724 3.44916C11.1341 3.31089 10.9466 3.23321 10.751 3.23321C10.5555 3.23321 10.368 3.31089 10.2297 3.44916L8.70315 4.97569L6.35747 2.63001ZM16.2622 10.5244L15.3611 11.4254H4.33885L8.70316 7.06111L9.41091 7.76887C9.69885 8.0568 10.1657 8.0568 10.4536 7.76887C10.7416 7.48093 10.7416 7.0141 10.4536 6.72616L9.74586 6.0184L10.751 5.01323L16.2622 10.5244Z" fill="#292929"/>
<path d="M18.1242 13.8831C18.479 13.8831 18.7835 14.1358 18.8489 14.4845C18.9295 14.9142 19.1872 15.2482 19.5766 15.753L19.6196 15.8087C19.992 16.2919 20.5 16.9645 20.5 17.8973C20.5 18.5274 20.2497 19.1317 19.8042 19.5773C19.3586 20.0228 18.7543 20.2731 18.1242 20.2731C17.4941 20.2731 16.8899 20.0228 16.4443 19.5773C15.9988 19.1317 15.7485 18.5274 15.7485 17.8973C15.7485 16.9645 16.2565 16.2919 16.6289 15.8087L16.6719 15.753C17.0613 15.2482 17.319 14.9142 17.3996 14.4845C17.4649 14.1358 17.7694 13.8831 18.1242 13.8831Z" fill="#292929"/>
</svg>
