<svg width="25" height="25" viewBox="0 0 25 25" fill="none" xmlns="http://www.w3.org/2000/svg">
<path d="M12.2207 2.49512C11.6684 2.49512 11.2207 2.94283 11.2207 3.49512C11.2207 4.0474 11.6684 4.49512 12.2207 4.49512H12.2307C12.783 4.49512 13.2307 4.0474 13.2307 3.49512C13.2307 2.94283 12.783 2.49512 12.2307 2.49512H12.2207Z" fill="#6C4CFF"/>
<path fill-rule="evenodd" clip-rule="evenodd" d="M4.2207 2.74512C3.2542 2.74512 2.4707 3.52862 2.4707 4.49512V7.49512C2.4707 8.46162 3.2542 9.24512 4.2207 9.24512H7.2207C8.1872 9.24512 8.9707 8.46162 8.9707 7.49512V4.49512C8.9707 3.52862 8.1872 2.74512 7.2207 2.74512H4.2207ZM3.9707 4.49512C3.9707 4.35705 4.08263 4.24512 4.2207 4.24512H7.2207C7.35877 4.24512 7.4707 4.35705 7.4707 4.49512V7.49512C7.4707 7.63319 7.35877 7.74512 7.2207 7.74512H4.2207C4.08263 7.74512 3.9707 7.63319 3.9707 7.49512V4.49512Z" fill="#6C4CFF"/>
<path fill-rule="evenodd" clip-rule="evenodd" d="M17.2207 2.74512C16.2542 2.74512 15.4707 3.52862 15.4707 4.49512V7.49512C15.4707 8.46162 16.2542 9.24512 17.2207 9.24512H20.2207C21.1872 9.24512 21.9707 8.46162 21.9707 7.49512V4.49512C21.9707 3.52862 21.1872 2.74512 20.2207 2.74512H17.2207ZM16.9707 4.49512C16.9707 4.35705 17.0826 4.24512 17.2207 4.24512H20.2207C20.3588 4.24512 20.4707 4.35705 20.4707 4.49512V7.49512C20.4707 7.63319 20.3588 7.74512 20.2207 7.74512H17.2207C17.0826 7.74512 16.9707 7.63319 16.9707 7.49512V4.49512Z" fill="#6C4CFF"/>
<path fill-rule="evenodd" clip-rule="evenodd" d="M2.4707 17.4951C2.4707 16.5286 3.2542 15.7451 4.2207 15.7451H7.2207C8.1872 15.7451 8.9707 16.5286 8.9707 17.4951V20.4951C8.9707 21.4616 8.1872 22.2451 7.2207 22.2451H4.2207C3.2542 22.2451 2.4707 21.4616 2.4707 20.4951V17.4951ZM4.2207 17.2451C4.08263 17.2451 3.9707 17.357 3.9707 17.4951V20.4951C3.9707 20.6332 4.08263 20.7451 4.2207 20.7451H7.2207C7.35877 20.7451 7.4707 20.6332 7.4707 20.4951V17.4951C7.4707 17.357 7.35877 17.2451 7.2207 17.2451H4.2207Z" fill="#6C4CFF"/>
<path d="M18.2207 15.7451C17.4914 15.7451 16.7919 16.0348 16.2762 16.5506C15.7604 17.0663 15.4707 17.7658 15.4707 18.4951V21.4951C15.4707 21.9093 15.8065 22.2451 16.2207 22.2451C16.6349 22.2451 16.9707 21.9093 16.9707 21.4951V18.4951C16.9707 18.1636 17.1024 17.8457 17.3368 17.6112C17.5712 17.3768 17.8892 17.2451 18.2207 17.2451H21.2207C21.6349 17.2451 21.9707 16.9093 21.9707 16.4951C21.9707 16.0809 21.6349 15.7451 21.2207 15.7451H18.2207Z" fill="#6C4CFF"/>
<path d="M21.2207 20.4951C21.773 20.4951 22.2207 20.9428 22.2207 21.4951V21.5051C22.2207 22.0574 21.773 22.5051 21.2207 22.5051C20.6684 22.5051 20.2207 22.0574 20.2207 21.5051V21.4951C20.2207 20.9428 20.6684 20.4951 21.2207 20.4951Z" fill="#6C4CFF"/>
<path d="M12.9707 7.49512C12.9707 7.0809 12.6349 6.74512 12.2207 6.74512C11.8065 6.74512 11.4707 7.0809 11.4707 7.49512V10.4951C11.4707 10.8266 11.339 11.1446 11.1046 11.379C10.8702 11.6134 10.5522 11.7451 10.2207 11.7451H7.2207C6.80649 11.7451 6.4707 12.0809 6.4707 12.4951C6.4707 12.9093 6.80649 13.2451 7.2207 13.2451H10.2207C10.95 13.2451 11.6495 12.9554 12.1652 12.4397C12.681 11.9239 12.9707 11.2245 12.9707 10.4951V7.49512Z" fill="#6C4CFF"/>
<path d="M2.2207 12.4951C2.2207 11.9428 2.66842 11.4951 3.2207 11.4951H3.2307C3.78299 11.4951 4.2307 11.9428 4.2307 12.4951C4.2307 13.0474 3.78299 13.4951 3.2307 13.4951H3.2207C2.66842 13.4951 2.2207 13.0474 2.2207 12.4951Z" fill="#6C4CFF"/>
<path d="M12.2207 15.4951C12.773 15.4951 13.2207 15.9428 13.2207 16.4951V16.5051C13.2207 17.0574 12.773 17.5051 12.2207 17.5051C11.6684 17.5051 11.2207 17.0574 11.2207 16.5051V16.4951C11.2207 15.9428 11.6684 15.4951 12.2207 15.4951Z" fill="#6C4CFF"/>
<path d="M16.2207 11.7451C15.8065 11.7451 15.4707 12.0809 15.4707 12.4951C15.4707 12.9093 15.8065 13.2451 16.2207 13.2451H17.2207C17.6349 13.2451 17.9707 12.9093 17.9707 12.4951C17.9707 12.0809 17.6349 11.7451 17.2207 11.7451H16.2207Z" fill="#6C4CFF"/>
<path d="M21.2207 11.4951C21.773 11.4951 22.2207 11.9428 22.2207 12.4951V12.5051C22.2207 13.0574 21.773 13.5051 21.2207 13.5051C20.6684 13.5051 20.2207 13.0574 20.2207 12.5051V12.4951C20.2207 11.9428 20.6684 11.4951 21.2207 11.4951Z" fill="#6C4CFF"/>
<path d="M12.9707 20.4951C12.9707 20.0809 12.6349 19.7451 12.2207 19.7451C11.8065 19.7451 11.4707 20.0809 11.4707 20.4951V21.4951C11.4707 21.9093 11.8065 22.2451 12.2207 22.2451C12.6349 22.2451 12.9707 21.9093 12.9707 21.4951V20.4951Z" fill="#6C4CFF"/>
</svg>
