<svg width="101" height="80" viewBox="0 0 101 80" fill="none" xmlns="http://www.w3.org/2000/svg">
<rect x="22" y="8" width="56" height="64" rx="4" fill="white"/>
<path fill-rule="evenodd" clip-rule="evenodd" d="M44.7917 18.5H55.2083C56.4708 18.5 57.5 19.5292 57.5 20.7917V31.2083C57.5 32.4708 56.4708 33.5 55.2083 33.5H44.7917C43.5292 33.5 42.5 32.4708 42.5 31.2083V20.7917C42.5 19.5292 43.5292 18.5 44.7917 18.5ZM55.2083 19.75H44.7917C44.2167 19.75 43.75 20.2167 43.75 20.7917V30.1167L46.9708 26.8958C47.3792 26.4917 48.0417 26.4917 48.4458 26.8958L49.5833 28.0333L53.0125 24.6042C53.4208 24.2 54.0833 24.2 54.4875 24.6042L56.25 26.3667V20.7917C56.25 20.2167 55.7833 19.75 55.2083 19.75ZM48.75 23.0833C48.75 24.0038 48.0038 24.75 47.0833 24.75C46.1629 24.75 45.4167 24.0038 45.4167 23.0833C45.4167 22.1629 46.1629 21.4167 47.0833 21.4167C48.0038 21.4167 48.75 22.1629 48.75 23.0833Z" fill="#368BF9"/>
<rect x="29.5" y="40.5" width="41" height="19" rx="3.5" stroke="#368BF9" stroke-dasharray="2 2"/>
<path d="M41.457 54.1289C39.6055 54.1289 38.4805 52.7578 38.4805 50.8477C38.4805 48.9023 39.6406 47.5547 41.4336 47.5547C42.8867 47.5547 43.9414 48.4102 44.0703 49.6992H42.8516C42.7227 49.1016 42.2422 48.5977 41.457 48.5977C40.4258 48.5977 39.7344 49.4531 39.7344 50.8125C39.7344 52.207 40.4141 53.0625 41.457 53.0625C42.1602 53.0625 42.6992 52.6758 42.8516 51.9844H44.0703C43.9297 53.2148 42.957 54.1289 41.457 54.1289ZM46.2678 45.5156V54H45.0139V45.5156H46.2678ZM47.5513 54V47.6367H48.8052V54H47.5513ZM48.1841 46.6523C47.7505 46.6523 47.3872 46.3242 47.3872 45.9141C47.3872 45.5039 47.7505 45.1758 48.1841 45.1758C48.6059 45.1758 48.9692 45.5039 48.9692 45.9141C48.9692 46.3242 48.6059 46.6523 48.1841 46.6523ZM52.7839 54.1289C50.9323 54.1289 49.8073 52.7578 49.8073 50.8477C49.8073 48.9023 50.9675 47.5547 52.7605 47.5547C54.2136 47.5547 55.2683 48.4102 55.3972 49.6992H54.1784C54.0495 49.1016 53.5691 48.5977 52.7839 48.5977C51.7527 48.5977 51.0612 49.4531 51.0612 50.8125C51.0612 52.207 51.7409 53.0625 52.7839 53.0625C53.487 53.0625 54.0261 52.6758 54.1784 51.9844H55.3972C55.2566 53.2148 54.2839 54.1289 52.7839 54.1289ZM56.3408 54V45.5156H57.5947V50.3203H57.7002L60.2197 47.6367H61.7197L59.1533 50.3672L61.8955 54H60.3603L58.2041 51.1406L57.5947 51.7383V54H56.3408Z" fill="#368BF9"/>
</svg>
