<svg width="17" height="16" viewBox="0 0 17 16" fill="none" xmlns="http://www.w3.org/2000/svg">
<path d="M12.832 8.45703C13.1654 8.6862 13.4362 8.97526 13.6445 9.32422C13.8529 9.66797 13.957 10.0742 13.957 10.543C13.957 11.1055 13.8372 11.582 13.5977 11.9727C13.3633 12.3581 13.0247 12.6628 12.582 12.8867C12.1133 13.1263 11.5716 13.2956 10.957 13.3945C10.3477 13.4935 9.62891 13.543 8.80078 13.543H3.04297V12.9336C3.20443 12.918 3.40755 12.8945 3.65234 12.8633C3.89714 12.832 4.06901 12.7956 4.16797 12.7539C4.36068 12.6758 4.49089 12.5742 4.55859 12.4492C4.63151 12.319 4.66797 12.1523 4.66797 11.9492V4.13672C4.66797 3.94922 4.63932 3.79297 4.58203 3.66797C4.52474 3.54297 4.38672 3.43359 4.16797 3.33984C4.00651 3.27214 3.81901 3.21745 3.60547 3.17578C3.39193 3.12891 3.20443 3.09245 3.04297 3.06641V2.45703H9.06641C10.582 2.45703 11.6758 2.66536 12.3477 3.08203C13.0195 3.4987 13.3555 4.11328 13.3555 4.92578C13.3555 5.30078 13.2799 5.63151 13.1289 5.91797C12.9779 6.19922 12.7617 6.44401 12.4805 6.65234C12.2253 6.84505 11.9206 7.01172 11.5664 7.15234C11.2122 7.29297 10.832 7.41016 10.4258 7.50391V7.65234C10.832 7.69401 11.2539 7.78516 11.6914 7.92578C12.1289 8.0612 12.5091 8.23828 12.832 8.45703ZM10.3164 5.12109C10.3164 4.50651 10.1419 4.02734 9.79297 3.68359C9.44922 3.33984 8.93099 3.16797 8.23828 3.16797C8.13932 3.16797 8.00911 3.17318 7.84766 3.18359C7.69141 3.1888 7.55599 3.19401 7.44141 3.19922V7.30859H7.84766C8.69141 7.30859 9.3138 7.11328 9.71484 6.72266C10.1159 6.32682 10.3164 5.79297 10.3164 5.12109ZM10.8633 10.4414C10.8633 9.67057 10.6341 9.07943 10.1758 8.66797C9.71745 8.25651 9.05859 8.05078 8.19922 8.05078C8.10026 8.05078 7.96745 8.05599 7.80078 8.06641C7.63932 8.07161 7.51953 8.07682 7.44141 8.08203V12.1367C7.48828 12.3294 7.63411 12.4935 7.87891 12.6289C8.1237 12.7591 8.42057 12.8242 8.76953 12.8242C9.38932 12.8242 9.89193 12.6159 10.2773 12.1992C10.668 11.7826 10.8633 11.1966 10.8633 10.4414Z" fill="#65696C"/>
</svg>
