<svg width="25" height="24" viewBox="0 0 25 24" fill="none" xmlns="http://www.w3.org/2000/svg">
<path d="M16.9906 3.02734C15.3001 3.02734 13.9219 4.40558 13.9219 6.09609C13.9219 6.34481 13.952 6.59108 14.0102 6.82552L9.01533 9.75637C8.46845 9.24546 7.73258 8.93359 6.92813 8.93359C5.23761 8.93359 3.85938 10.3118 3.85938 12.0023C3.85938 13.6929 5.23761 15.0711 6.92813 15.0711C7.73348 15.0711 8.46552 14.7586 9.01481 14.248L14.0101 17.1791C13.952 17.4121 13.9219 17.6554 13.9219 17.9042C13.9219 19.5947 15.3001 20.973 16.9906 20.973C18.6811 20.973 20.0594 19.5947 20.0594 17.9042C20.0594 16.2137 18.6811 14.8355 16.9906 14.8355C16.1853 14.8355 15.4532 15.148 14.9039 15.6585L9.90859 12.7274C9.96678 12.493 9.99688 12.2467 9.99688 11.998C9.99688 11.7492 9.96676 11.5058 9.90869 11.2729L14.9039 8.34177C15.4494 8.84871 16.1813 9.16484 16.9906 9.16484C18.6811 9.16484 20.0594 7.78661 20.0594 6.09609C20.0594 4.40558 18.6811 3.02734 16.9906 3.02734Z" fill="#292929"/>
</svg>
