<svg width="25" height="24" viewBox="0 0 25 24" fill="none" xmlns="http://www.w3.org/2000/svg">
<path fill-rule="evenodd" clip-rule="evenodd" d="M17.3398 7C17.3398 9.76142 15.1013 12 12.3398 12C9.57842 12 7.33984 9.76142 7.33984 7C7.33984 4.23858 9.57842 2 12.3398 2C15.1013 2 17.3398 4.23858 17.3398 7ZM20.4197 16.86L21.2003 19.4158C21.5929 20.701 20.6315 22 19.2876 22H5.3818C4.03791 22 3.07646 20.701 3.46904 19.4158L4.24969 16.86C4.86469 14.85 6.68969 13.5 8.79469 13.5H15.8747C17.9797 13.5 19.8047 14.85 20.4197 16.86Z" fill="#292929"/>
</svg>
