<svg width="24" height="24" viewBox="0 0 24 24" fill="none" xmlns="http://www.w3.org/2000/svg">
<path d="M18.1595 23.918C18.0636 23.918 17.9695 23.8871 17.8884 23.8254C17.7446 23.7175 17.6745 23.5363 17.704 23.3532L18.0507 21.2368L16.581 19.7391C16.4538 19.61 16.4095 19.4211 16.4648 19.2456C16.5201 19.0702 16.6621 18.945 16.8373 18.918L18.8694 18.6096L19.7785 16.6859C19.856 16.5201 20.0145 16.418 20.1916 16.418C20.3686 16.418 20.5272 16.5201 20.6046 16.6859L21.5137 18.6096L23.5458 18.918C23.721 18.945 23.863 19.0702 23.9183 19.2456C23.9736 19.4211 23.9275 19.61 23.8021 19.7391L22.3325 21.2368L22.6791 23.3513C22.7086 23.5344 22.6386 23.7137 22.4947 23.8235C22.3509 23.9315 22.1665 23.945 22.0098 23.8601L20.1916 22.8617L18.3734 23.8601C18.3051 23.8968 18.2314 23.916 18.1576 23.916L18.1595 23.918Z" fill="#292929"/>
<path fill-rule="evenodd" clip-rule="evenodd" d="M18.25 3H5.75C4.235 3 3 4.235 3 5.75V18.25C3 19.765 4.235 21 5.75 21H15.7157L15.5128 20.7933L15.5114 20.7919C14.9868 20.2584 14.8162 19.4885 15.0346 18.7959C15.2525 18.1051 15.8402 17.5554 16.6093 17.4369L16.6126 17.4364L17.8549 17.2479L18.4217 16.0485C18.7388 15.3737 19.4157 14.9194 20.1919 14.9194C20.4793 14.9194 20.7531 14.9817 21 15.0944V5.75C21 4.235 19.765 3 18.25 3ZM21 17.5233L20.605 16.6874C20.5275 16.5216 20.3689 16.4194 20.1919 16.4194C20.0149 16.4194 19.8563 16.5216 19.7789 16.6874L18.8698 18.611L16.8377 18.9194C16.6625 18.9464 16.5205 19.0717 16.4652 19.2471C16.4098 19.4225 16.4541 19.6114 16.5813 19.7406L17.8172 21H18.25C19.765 21 21 19.765 21 18.25V17.5233ZM5.75 4.5H18.25C18.94 4.5 19.5 5.06 19.5 5.75V12.44L17.385 10.325C16.9 9.84 16.105 9.84 15.615 10.325L11.5 14.44L10.135 13.075C9.65 12.59 8.855 12.59 8.365 13.075L4.5 16.94V5.75C4.5 5.06 5.06 4.5 5.75 4.5ZM8.5 10.5C9.60457 10.5 10.5 9.60457 10.5 8.5C10.5 7.39543 9.60457 6.5 8.5 6.5C7.39543 6.5 6.5 7.39543 6.5 8.5C6.5 9.60457 7.39543 10.5 8.5 10.5Z" fill="#292929"/>
</svg>
