<svg width="19" height="18" viewBox="0 0 19 18" fill="none" xmlns="http://www.w3.org/2000/svg">
<path d="M14.6292 10.2337L12.8245 9.75143C12.5569 9.67986 12.2675 9.75765 12.0715 9.95368L10.7988 11.2263C9.05944 10.3644 7.65298 8.95796 6.79106 7.21856L8.06372 5.94591C8.25975 5.74987 8.33754 5.46049 8.26597 5.19289L7.78367 3.38815C7.69343 3.04898 7.38227 2.8125 7.03377 2.8125H4.54758C4.05594 2.8125 3.58609 3.02409 3.25936 3.39126C2.93887 3.75221 2.7864 4.2314 2.84552 4.70437C3.49896 10.2151 7.80545 14.5215 13.3161 15.175C13.3815 15.1843 13.4468 15.1874 13.5122 15.1874C13.9198 15.1874 14.3212 15.0381 14.6292 14.7611C14.9964 14.4344 15.208 13.9646 15.208 13.4729V10.9867C15.208 10.6351 14.9715 10.3271 14.6324 10.2337H14.6292Z" fill="#FAFAFA"/>
</svg>
