<svg width="24" height="24" viewBox="0 0 24 24" fill="none" xmlns="http://www.w3.org/2000/svg">
<g clip-path="url(#clip0_2006_37194)">
<g filter="url(#filter0_d_2006_37194)">
<path d="M17.7229 10.687C18.759 11.2569 18.759 12.7458 17.7229 13.3157L7.72396 18.8149C6.72428 19.3647 5.5011 18.6414 5.5011 17.5005L5.50111 6.50214C5.50111 5.36124 6.72429 4.638 7.72396 5.1878L17.7229 10.687Z" fill="#3DF69B"/>
<path d="M18.6867 15.0681C21.1044 13.7384 21.1045 10.2643 18.6867 8.93456M18.6867 15.0681L18.6867 8.93456M18.6867 15.0681L8.68778 20.5673C6.35519 21.8502 3.5011 20.1626 3.5011 17.5005L3.50111 6.50214C3.50111 3.84005 6.3552 2.15248 8.68778 3.43536L18.6867 8.93456M18.6867 15.0681L18.6867 8.93456" stroke="#141414" stroke-width="4" stroke-linecap="round" stroke-linejoin="round"/>
</g>
</g>
<defs>
<filter id="filter0_d_2006_37194" x="1.50098" y="0.996094" width="21.999" height="23.0117" filterUnits="userSpaceOnUse" color-interpolation-filters="sRGB">
<feFlood flood-opacity="0" result="BackgroundImageFix"/>
<feColorMatrix in="SourceAlpha" type="matrix" values="0 0 0 0 0 0 0 0 0 0 0 0 0 0 0 0 0 0 127 0" result="hardAlpha"/>
<feOffset dx="1" dy="1"/>
<feComposite in2="hardAlpha" operator="out"/>
<feColorMatrix type="matrix" values="0 0 0 0 0 0 0 0 0 0 0 0 0 0 0 0 0 0 0.3 0"/>
<feBlend mode="normal" in2="BackgroundImageFix" result="effect1_dropShadow_2006_37194"/>
<feBlend mode="normal" in="SourceGraphic" in2="effect1_dropShadow_2006_37194" result="shape"/>
</filter>
<clipPath id="clip0_2006_37194">
<rect width="24" height="24" fill="white"/>
</clipPath>
</defs>
</svg>
