<svg width="17" height="16" viewBox="0 0 17 16" fill="none" xmlns="http://www.w3.org/2000/svg">
<path fill-rule="evenodd" clip-rule="evenodd" d="M4.33333 2H12.6667C13.6767 2 14.5 2.82333 14.5 3.83333V12.1667C14.5 13.1767 13.6767 14 12.6667 14H4.33333C3.32333 14 2.5 13.1767 2.5 12.1667V3.83333C2.5 2.82333 3.32333 2 4.33333 2ZM12.6667 3H4.33333C3.87333 3 3.5 3.37333 3.5 3.83333V11.2933L6.07667 8.71667C6.40333 8.39333 6.93333 8.39333 7.25667 8.71667L8.16667 9.62667L10.91 6.88333C11.2367 6.56 11.7667 6.56 12.09 6.88333L13.5 8.29333V3.83333C13.5 3.37333 13.1267 3 12.6667 3ZM7.5 5.66667C7.5 6.40305 6.90305 7 6.16667 7C5.43029 7 4.83333 6.40305 4.83333 5.66667C4.83333 4.93029 5.43029 4.33333 6.16667 4.33333C6.90305 4.33333 7.5 4.93029 7.5 5.66667Z" fill="#65696C"/>
</svg>
