<svg width="5" height="16" viewBox="0 0 5 16" fill="none" xmlns="http://www.w3.org/2000/svg">
<path fill-rule="evenodd" clip-rule="evenodd" d="M3.5 3C3.5 3.55228 3.05228 4 2.5 4C1.94772 4 1.5 3.55228 1.5 3C1.5 2.44772 1.94772 2 2.5 2C3.05228 2 3.5 2.44772 3.5 3ZM2.5 9C3.05228 9 3.5 8.55228 3.5 8C3.5 7.44772 3.05228 7 2.5 7C1.94772 7 1.5 7.44772 1.5 8C1.5 8.55228 1.94772 9 2.5 9ZM2.5 14C3.05228 14 3.5 13.5523 3.5 13C3.5 12.4477 3.05228 12 2.5 12C1.94772 12 1.5 12.4477 1.5 13C1.5 13.5523 1.94772 14 2.5 14Z" fill="#292929"/>
</svg>
