<svg width="25" height="25" viewBox="0 0 25 25" fill="none" xmlns="http://www.w3.org/2000/svg">
<path d="M5.2207 12.5C5.2207 12.5 7.7657 7.5 12.2207 7.5C16.6747 7.5 19.2207 12.5 19.2207 12.5C19.2207 12.5 16.6747 17.5 12.2207 17.5C7.7657 17.5 5.2207 12.5 5.2207 12.5Z" stroke="#6C4CFF" stroke-width="1.5" stroke-linecap="round" stroke-linejoin="round"/>
<path d="M12.2207 13.5C12.4859 13.5 12.7403 13.3946 12.9278 13.2071C13.1153 13.0196 13.2207 12.7652 13.2207 12.5C13.2207 12.2348 13.1153 11.9804 12.9278 11.7929C12.7403 11.6054 12.4859 11.5 12.2207 11.5C11.9555 11.5 11.7011 11.6054 11.5136 11.7929C11.3261 11.9804 11.2207 12.2348 11.2207 12.5C11.2207 12.7652 11.3261 13.0196 11.5136 13.2071C11.7011 13.3946 11.9555 13.5 12.2207 13.5Z" stroke="#6C4CFF" stroke-width="1.5" stroke-linecap="round" stroke-linejoin="round"/>
<path d="M21.2207 17.5V19.5C21.2207 20.0304 21.01 20.5391 20.6349 20.9142C20.2598 21.2893 19.7511 21.5 19.2207 21.5H5.2207C4.69027 21.5 4.18156 21.2893 3.80649 20.9142C3.43142 20.5391 3.2207 20.0304 3.2207 19.5V17.5" stroke="#6C4CFF" stroke-width="1.5" stroke-linecap="square" stroke-linejoin="round"/>
<path d="M21.2207 7.5V5.5C21.2207 4.96957 21.01 4.46086 20.6349 4.08579C20.2598 3.71071 19.7511 3.5 19.2207 3.5H5.2207C4.69027 3.5 4.18156 3.71071 3.80649 4.08579C3.43142 4.46086 3.2207 4.96957 3.2207 5.5V7.5" stroke="#6C4CFF" stroke-width="1.5" stroke-linecap="square" stroke-linejoin="round"/>
</svg>
