<svg width="25" height="24" viewBox="0 0 25 24" fill="none" xmlns="http://www.w3.org/2000/svg">
<path d="M7.15655 21.5917C6.89655 21.5917 6.64155 21.5117 6.42155 21.3517C6.03155 21.0717 5.84155 20.6017 5.92155 20.1267L6.86155 14.6367L2.87655 10.7517C2.53155 10.4167 2.41155 9.92672 2.56155 9.47172C2.71155 9.01672 3.09655 8.69172 3.57155 8.62172L9.08155 7.82172L11.5465 2.83172C11.7565 2.40172 12.1865 2.13672 12.6665 2.13672C13.1465 2.13672 13.5765 2.40172 13.7865 2.83172L16.2515 7.82172L21.7615 8.62172C22.2365 8.69172 22.6215 9.01672 22.7715 9.47172C22.9215 9.92672 22.7965 10.4167 22.4565 10.7517L18.4715 14.6367L19.4115 20.1217C19.4915 20.5967 19.3015 21.0617 18.9115 21.3467C18.5215 21.6267 18.0215 21.6617 17.5965 21.4417L12.6665 18.8517L7.73655 21.4417C7.55155 21.5367 7.35155 21.5867 7.15155 21.5867L7.15655 21.5917Z" fill="#292929"/>
</svg>
