<svg width="25" height="24" viewBox="0 0 25 24" fill="none" xmlns="http://www.w3.org/2000/svg">
<path d="M3.16602 4.59766C3.16602 3.76923 3.83759 3.09766 4.66602 3.09766H18.666C19.4944 3.09766 20.166 3.76923 20.166 4.59766V8.72266H17.166V6.09766H13.166V17.0986H13.2999C13.3952 17.3455 13.5411 17.5759 13.7357 17.7738L13.7371 17.7752L14.6721 18.7281L14.4483 20.0941L14.4476 20.0986H7.54102V17.0986H10.166V6.09766H6.16602V8.72266H3.16602V4.59766Z" fill="#292929"/>
<path d="M14.8056 16.7225C14.6784 16.5933 14.6341 16.4045 14.6894 16.229C14.7448 16.0536 14.8868 15.9284 15.0619 15.9014L17.094 15.593L18.0031 13.6693C18.0806 13.5035 18.2392 13.4014 18.4162 13.4014C18.5932 13.4014 18.7518 13.5035 18.8292 13.6693L19.7383 15.593L21.7704 15.9014C21.9456 15.9284 22.0876 16.0536 22.1429 16.229C22.1982 16.4045 22.1521 16.5933 22.0268 16.7225L20.5571 18.2202L20.9037 20.3347C20.9333 20.5178 20.8632 20.697 20.7193 20.8069C20.5755 20.9149 20.3911 20.9284 20.2344 20.8435L18.4162 19.8451L16.598 20.8435C16.5298 20.8802 16.456 20.8994 16.3822 20.8994L16.3841 20.9014C16.2882 20.9014 16.1942 20.8705 16.113 20.8088C15.9692 20.7009 15.8991 20.5197 15.9286 20.3366L16.2753 18.2202L14.8056 16.7225Z" fill="#292929"/>
</svg>
