<svg width="25" height="24" viewBox="0 0 25 24" fill="none" xmlns="http://www.w3.org/2000/svg">
<path fill-rule="evenodd" clip-rule="evenodd" d="M6.08398 3H18.584C20.099 3 21.334 4.235 21.334 5.75V18.25C21.334 19.765 20.099 21 18.584 21H6.08398C4.56898 21 3.33398 19.765 3.33398 18.25V5.75C3.33398 4.235 4.56898 3 6.08398 3ZM18.584 4.5H6.08398C5.39398 4.5 4.83398 5.06 4.83398 5.75V16.94L8.69898 13.075C9.18898 12.59 9.98398 12.59 10.469 13.075L11.834 14.44L15.949 10.325C16.439 9.84 17.234 9.84 17.719 10.325L19.834 12.44V5.75C19.834 5.06 19.274 4.5 18.584 4.5ZM10.834 8.5C10.834 9.60457 9.93855 10.5 8.83398 10.5C7.72942 10.5 6.83398 9.60457 6.83398 8.5C6.83398 7.39543 7.72942 6.5 8.83398 6.5C9.93855 6.5 10.834 7.39543 10.834 8.5Z" fill="#292929"/>
</svg>
