<svg width="16" height="16" viewBox="0 0 16 16" fill="none" xmlns="http://www.w3.org/2000/svg">
<path fill-rule="evenodd" clip-rule="evenodd" d="M10.6667 3.16668V3.33334H14V4.33334H2V3.33334H5.33333V3.16668C5.33333 2.15668 6.15667 1.33334 7.16667 1.33334H8.83333C9.84333 1.33334 10.6667 2.15668 10.6667 3.16668ZM6.33333 3.33334H9.66667V3.16668C9.66667 2.70668 9.29333 2.33334 8.83333 2.33334H7.16667C6.70667 2.33334 6.33333 2.70668 6.33333 3.16668V3.33334ZM2.66667 12.8333V5.33334H13.3333V12.8333C13.3333 13.8433 12.51 14.6667 11.5 14.6667H4.5C3.49 14.6667 2.66667 13.8433 2.66667 12.8333Z" fill="white"/>
</svg>
