<svg width="24" height="24" viewBox="0 0 24 24" fill="none" xmlns="http://www.w3.org/2000/svg">
<path d="M21.7665 6.95982C21.5753 5.9042 20.664 5.13545 19.6065 4.89545C18.024 4.55982 15.0953 4.31982 11.9265 4.31982C8.75965 4.31982 5.78402 4.55982 4.19965 4.89545C3.14402 5.13545 2.2309 5.85545 2.03965 6.95982C1.84652 8.15982 1.65527 9.83982 1.65527 11.9998C1.65527 14.1598 1.84652 15.8398 2.08652 17.0398C2.27965 18.0954 3.1909 18.8642 4.24652 19.1042C5.92652 19.4398 8.80652 19.6798 11.9753 19.6798C15.144 19.6798 18.024 19.4398 19.704 19.1042C20.7596 18.8642 21.6709 18.1442 21.864 17.0398C22.0553 15.8398 22.2953 14.1111 22.344 11.9998C22.2465 9.83982 22.0065 8.15982 21.7665 6.95982ZM9.33527 15.3598V8.63982L15.1909 11.9998L9.33527 15.3598Z" fill="#292929"/>
</svg>
