<svg width="16" height="16" viewBox="0 0 16 16" fill="none" xmlns="http://www.w3.org/2000/svg">
<path d="M8.00004 1.3335C4.32337 1.3335 1.33337 4.3235 1.33337 8.00016C1.33337 11.6768 4.32337 14.6668 8.00004 14.6668C11.6767 14.6668 14.6667 11.6768 14.6667 8.00016C14.6667 4.3235 11.6767 1.3335 8.00004 1.3335ZM8.00004 13.4968C7.63671 13.1468 7.02004 12.4635 6.50671 11.4668C6.97004 11.3868 7.46337 11.3335 8.00004 11.3335C8.53671 11.3335 9.03004 11.3835 9.49337 11.4668C8.98004 12.4635 8.36337 13.1468 8.00004 13.4968ZM8.00004 10.3335C7.31337 10.3335 6.68337 10.4102 6.10337 10.5268C5.89004 9.93016 5.73671 9.25016 5.69004 8.50016H10.3134C10.2634 9.25016 10.1134 9.93016 9.90004 10.5268C9.32004 10.4102 8.69004 10.3335 8.00337 10.3335H8.00004ZM5.69004 7.50016C5.74004 6.75016 5.89004 6.07016 6.10337 5.4735C6.68337 5.59016 7.31337 5.66683 8.00004 5.66683C8.68671 5.66683 9.31671 5.59016 9.89671 5.4735C10.11 6.07016 10.2634 6.75016 10.31 7.50016H5.68671H5.69004ZM8.00004 4.66683C7.46337 4.66683 6.97004 4.61683 6.50671 4.5335C7.02004 3.53683 7.63671 2.8535 8.00004 2.5035C8.36337 2.8535 8.98004 3.53683 9.49337 4.5335C9.03004 4.6135 8.53671 4.66683 8.00004 4.66683ZM9.36337 2.50683C10.2734 2.7335 11.0967 3.18016 11.7767 3.78683C11.41 3.97016 10.9834 4.14683 10.5 4.29683C10.15 3.56016 9.74004 2.96016 9.36671 2.50683H9.36337ZM5.50337 4.29683C5.01671 4.14683 4.59337 3.97016 4.22671 3.78683C4.90337 3.18016 5.72671 2.7335 6.64004 2.50683C6.26671 2.96016 5.85671 3.56016 5.50671 4.29683H5.50337ZM5.12004 5.22683C4.89337 5.89683 4.73671 6.66016 4.69004 7.50016H2.36004C2.45671 6.3935 2.87337 5.38016 3.51671 4.54683C3.96004 4.78683 4.49671 5.02683 5.12004 5.22683ZM4.69004 8.50016C4.73671 9.34016 4.89337 10.1035 5.12004 10.7735C4.49671 10.9702 3.96004 11.2135 3.51671 11.4535C2.87337 10.6202 2.45671 9.60683 2.36004 8.50016H4.69004ZM5.50337 11.7035C5.85337 12.4402 6.26337 13.0402 6.63671 13.4935C5.72671 13.2668 4.90337 12.8202 4.22337 12.2135C4.59004 12.0302 5.01671 11.8535 5.50004 11.7035H5.50337ZM10.4967 11.7035C10.9834 11.8535 11.4067 12.0302 11.7734 12.2135C11.0967 12.8202 10.2734 13.2668 9.36004 13.4935C9.73337 13.0402 10.1434 12.4402 10.4934 11.7035H10.4967ZM10.88 10.7735C11.1067 10.1035 11.2634 9.34016 11.31 8.50016H13.64C13.5434 9.60683 13.1267 10.6202 12.4834 11.4535C12.04 11.2135 11.5034 10.9735 10.88 10.7735ZM11.31 7.50016C11.2634 6.66016 11.1067 5.89683 10.88 5.22683C11.5034 5.03016 12.04 4.78683 12.4834 4.54683C13.1267 5.38016 13.5434 6.3935 13.64 7.50016H11.31Z" fill="#65696C"/>
</svg>
