<svg width="14" height="14" viewBox="0 0 14 14" fill="none" xmlns="http://www.w3.org/2000/svg">
<g id="icon-info">
<path id="Vector" fill-rule="evenodd" clip-rule="evenodd" d="M6.99984 12.8327C3.78275 12.8327 1.1665 10.2164 1.1665 6.99935C1.1665 3.78227 3.78275 1.16602 6.99984 1.16602C10.2169 1.16602 12.8332 3.78227 12.8332 6.99935C12.8332 10.2164 10.2169 12.8327 6.99984 12.8327ZM6.99984 2.04102C4.26692 2.04102 2.0415 4.26643 2.0415 6.99935C2.0415 9.73227 4.26692 11.9577 6.99984 11.9577C9.73275 11.9577 11.9582 9.73227 11.9582 6.99935C11.9582 4.26643 9.73275 2.04102 6.99984 2.04102ZM7.43734 9.33268V6.12435H6.56234V9.33268H7.43734ZM7.58317 4.66602C7.58317 4.98818 7.322 5.24935 6.99984 5.24935C6.67767 5.24935 6.4165 4.98818 6.4165 4.66602C6.4165 4.34385 6.67767 4.08268 6.99984 4.08268C7.322 4.08268 7.58317 4.34385 7.58317 4.66602Z" fill="#368BF9"/>
</g>
</svg>
