<svg width="16" height="16" viewBox="0 0 16 16" fill="none" xmlns="http://www.w3.org/2000/svg">
<path fill-rule="evenodd" clip-rule="evenodd" d="M1.3335 7.99967C1.3335 11.6763 4.3235 14.6663 8.00016 14.6663C11.6768 14.6663 14.6668 11.6763 14.6668 7.99967C14.6668 4.32301 11.6768 1.33301 8.00016 1.33301C4.3235 1.33301 1.3335 4.32301 1.3335 7.99967ZM2.3335 7.99967C2.3335 4.87634 4.87683 2.33301 8.00016 2.33301C11.1235 2.33301 13.6668 4.87634 13.6668 7.99967C13.6668 11.123 11.1235 13.6663 8.00016 13.6663C4.87683 13.6663 2.3335 11.123 2.3335 7.99967Z" fill="#65696C"/>
<rect x="3.3335" y="12" width="12.6667" height="1" transform="rotate(-45 3.3335 12)" fill="#65696C"/>
</svg>
