<svg width="17" height="16" viewBox="0 0 17 16" fill="none" xmlns="http://www.w3.org/2000/svg">
<g clip-path="url(#clip0_10_4008)">
<path d="M12.5076 7.60274L12.2959 7.39103L13.8409 5.84598C14.7208 4.9661 14.7208 3.53968 13.8409 2.6613C12.961 1.78292 11.5346 1.78142 10.6562 2.6613L9.11119 4.20635L8.89948 3.99463C8.66524 3.7604 8.28536 3.7604 8.04963 3.99463C7.81389 4.22887 7.81539 4.60875 8.04963 4.84448L8.31539 5.11025L4.30788 9.11776C3.83341 9.59223 3.48206 10.3655 3.43101 11.0442C3.39948 11.4586 3.20278 11.8685 2.87395 12.1973L2.65623 12.4151C2.45053 12.6208 2.45053 12.9526 2.65623 13.1583L3.34692 13.849C3.55263 14.0547 3.88446 14.0547 4.09017 13.849L4.30788 13.6313C4.63671 13.3024 5.04512 13.1042 5.46104 13.0742C6.13972 13.0247 6.91299 12.6718 7.38746 12.1973L11.395 8.18983L11.6607 8.45559C11.895 8.68983 12.2749 8.68983 12.5106 8.45559C12.7463 8.22136 12.7448 7.84148 12.5106 7.60574L12.5076 7.60274ZM6.64122 11.4511C6.34692 11.7454 5.80488 11.9916 5.37996 12.0232C4.86644 12.0607 4.36644 12.2514 3.93101 12.5682C4.24782 12.1343 4.43851 11.6328 4.47605 11.1208C4.50758 10.6958 4.75383 10.1538 5.04812 9.8595L9.05563 5.85199L10.6487 7.44508L6.64122 11.4526V11.4511Z" fill="#65696C"/>
</g>
<defs>
<clipPath id="clip0_10_4008">
<rect width="12" height="12" fill="white" transform="translate(2.5 2)"/>
</clipPath>
</defs>
</svg>
