<svg width="101" height="80" viewBox="0 0 101 80" fill="none" xmlns="http://www.w3.org/2000/svg">
<path d="M22 12C22 9.79086 23.7909 8 26 8H74C76.2091 8 78 9.79086 78 12V52H22V12Z" fill="white"/>
<path fill-rule="evenodd" clip-rule="evenodd" d="M44.2708 21.75H55.7292C57.1179 21.75 58.25 22.8821 58.25 24.2708V35.7292C58.25 37.1179 57.1179 38.25 55.7292 38.25H44.2708C42.8821 38.25 41.75 37.1179 41.75 35.7292V24.2708C41.75 22.8821 42.8821 21.75 44.2708 21.75ZM55.7292 23.125H44.2708C43.6383 23.125 43.125 23.6383 43.125 24.2708V34.5283L46.6679 30.9854C47.1171 30.5408 47.8458 30.5408 48.2904 30.9854L49.5417 32.2367L53.3137 28.4646C53.7629 28.02 54.4917 28.02 54.9363 28.4646L56.875 30.4033V24.2708C56.875 23.6383 56.3617 23.125 55.7292 23.125ZM48.625 26.7917C48.625 27.8042 47.8042 28.625 46.7917 28.625C45.7791 28.625 44.9583 27.8042 44.9583 26.7917C44.9583 25.7791 45.7791 24.9583 46.7917 24.9583C47.8042 24.9583 48.625 25.7791 48.625 26.7917Z" fill="#368BF9"/>
<path d="M22 52H78V68C78 70.2091 76.2091 72 74 72H26C23.7909 72 22 70.2091 22 68V52Z" fill="#368BF9"/>
<path d="M41.4859 66.1289C39.6343 66.1289 38.5093 64.7578 38.5093 62.8477C38.5093 60.9023 39.6695 59.5547 41.4624 59.5547C42.9155 59.5547 43.9702 60.4102 44.0991 61.6992H42.8804C42.7515 61.1016 42.271 60.5977 41.4859 60.5977C40.4546 60.5977 39.7632 61.4531 39.7632 62.8125C39.7632 64.207 40.4429 65.0625 41.4859 65.0625C42.189 65.0625 42.728 64.6758 42.8804 63.9844H44.0991C43.9585 65.2148 42.9859 66.1289 41.4859 66.1289ZM46.2966 57.5156V66H45.0427V57.5156H46.2966ZM47.5801 66V59.6367H48.834V66H47.5801ZM48.2129 58.6523C47.7793 58.6523 47.416 58.3242 47.416 57.9141C47.416 57.5039 47.7793 57.1758 48.2129 57.1758C48.6348 57.1758 48.998 57.5039 48.998 57.9141C48.998 58.3242 48.6348 58.6523 48.2129 58.6523ZM52.8127 66.1289C50.9612 66.1289 49.8362 64.7578 49.8362 62.8477C49.8362 60.9023 50.9963 59.5547 52.7893 59.5547C54.2424 59.5547 55.2971 60.4102 55.426 61.6992H54.2073C54.0784 61.1016 53.5979 60.5977 52.8127 60.5977C51.7815 60.5977 51.0901 61.4531 51.0901 62.8125C51.0901 64.207 51.7698 65.0625 52.8127 65.0625C53.5159 65.0625 54.0549 64.6758 54.2073 63.9844H55.426C55.2854 65.2148 54.3127 66.1289 52.8127 66.1289ZM56.3696 66V57.5156H57.6235V62.3203H57.729L60.2485 59.6367H61.7485L59.1821 62.3672L61.9243 66H60.3891L58.2329 63.1406L57.6235 63.7383V66H56.3696Z" fill="white"/>
</svg>
