<svg width="20" height="21" viewBox="0 0 20 21" fill="none" xmlns="http://www.w3.org/2000/svg">
<path d="M10.2169 15.5266L9.99967 15.4218L9.78246 15.5266L4.01311 18.3092C4.01298 18.3092 4.01286 18.3093 4.01273 18.3094C3.97671 18.3264 3.92849 18.3256 3.88848 18.3021C3.85544 18.2804 3.83301 18.2407 3.83301 18.1978V4.86442C3.83301 3.87806 4.63832 3.07275 5.62467 3.07275H14.3747C15.361 3.07275 16.1663 3.87806 16.1663 4.86442V18.1978C16.1663 18.2461 16.1438 18.2811 16.1149 18.2997C16.0826 18.3186 16.059 18.3228 16.0413 18.3228C16.0268 18.3228 16.0086 18.3197 15.9862 18.3092C15.986 18.3091 15.9857 18.3089 15.9855 18.3088L10.2169 15.5266Z" stroke="#368BF9"/>
</svg>
