<svg width="25" height="25" viewBox="0 0 25 25" fill="none" xmlns="http://www.w3.org/2000/svg">
<path d="M15.4207 3.5C15.9482 3.50751 16.4514 3.72317 16.8207 4.1L20.6207 7.9C20.9975 8.26926 21.2132 8.77246 21.2207 9.3V19.5C21.2207 20.0304 21.01 20.5391 20.6349 20.9142C20.2598 21.2893 19.7511 21.5 19.2207 21.5H5.2207C4.69027 21.5 4.18156 21.2893 3.80649 20.9142C3.43142 20.5391 3.2207 20.0304 3.2207 19.5V5.5C3.2207 4.96957 3.43142 4.46086 3.80649 4.08579C4.18156 3.71071 4.69027 3.5 5.2207 3.5H15.4207Z" stroke="#6C4CFF" stroke-width="1.5" stroke-linecap="round" stroke-linejoin="round"/>
<path d="M17.2207 21.5V14.5C17.2207 14.2348 17.1153 13.9804 16.9278 13.7929C16.7403 13.6054 16.4859 13.5 16.2207 13.5H8.2207C7.95549 13.5 7.70113 13.6054 7.5136 13.7929C7.32606 13.9804 7.2207 14.2348 7.2207 14.5V21.5" stroke="#6C4CFF" stroke-width="1.5" stroke-linecap="round" stroke-linejoin="round"/>
<path d="M7.2207 3.5V7.5C7.2207 7.76522 7.32606 8.01957 7.5136 8.20711C7.70113 8.39464 7.95549 8.5 8.2207 8.5H15.2207" stroke="#6C4CFF" stroke-width="1.5" stroke-linecap="square" stroke-linejoin="round"/>
</svg>
