<svg width="25" height="24" viewBox="0 0 25 24" fill="none" xmlns="http://www.w3.org/2000/svg">
<path d="M18.582 3H17.832V2H16.332V3H8.33203V2H6.83203V3H6.08203C4.56703 3 3.33203 4.235 3.33203 5.75V18.25C3.33203 19.765 4.56703 21 6.08203 21H18.582C20.097 21 21.332 19.765 21.332 18.25V5.75C21.332 4.235 20.097 3 18.582 3ZM16.332 4.5H17.832V6H16.332V4.5ZM6.83203 4.5H8.33203V6H6.83203V4.5ZM19.832 18.25C19.832 18.94 19.272 19.5 18.582 19.5H6.08203C5.39203 19.5 4.83203 18.94 4.83203 18.25V8.5H19.832V18.25Z" fill="#292929"/>
</svg>
