<svg width="24" height="24" viewBox="0 0 24 24" fill="none" xmlns="http://www.w3.org/2000/svg">
<path d="M12.75 15H12.745V14.505C12.745 13.85 13.075 13.6 13.765 13.135L13.7682 13.1328C14.5529 12.603 15.62 11.8826 15.62 10.11C15.62 8.125 14.005 6.505 12.015 6.505C10.555 6.505 9.245 7.38 8.685 8.73L10.07 9.30501C10.395 8.51501 11.16 8.005 12.015 8.005C13.175 8.005 14.12 8.95 14.12 10.11C14.12 11.085 13.65 11.405 12.93 11.89C12.22 12.365 11.25 13.02 11.25 14.5V15H12.745V15.005L12.75 15Z" fill="#EFF0F0"/>
<path d="M13 17.5C13 18.0523 12.5523 18.5 12 18.5C11.4477 18.5 11 18.0523 11 17.5C11 16.9477 11.4477 16.5 12 16.5C12.5523 16.5 13 16.9477 13 17.5Z" fill="#EFF0F0"/>
<path fill-rule="evenodd" clip-rule="evenodd" d="M12 22C6.485 22 2 17.515 2 12C2 6.485 6.485 2 12 2C17.515 2 22 6.485 22 12C22 17.515 17.515 22 12 22ZM12 3.5C7.315 3.5 3.5 7.315 3.5 12C3.5 16.685 7.315 20.5 12 20.5C16.685 20.5 20.5 16.685 20.5 12C20.5 7.315 16.685 3.5 12 3.5Z" fill="#EFF0F0"/>
</svg>
