<svg width="24" height="24" viewBox="0 0 24 24" fill="none" xmlns="http://www.w3.org/2000/svg">
<path d="M3.5 6C3.5 4.61929 4.61929 3.5 6 3.5H18C19.3807 3.5 20.5 4.61929 20.5 6V18C20.5 19.3807 19.3807 20.5 18 20.5H6C4.61929 20.5 3.5 19.3807 3.5 18V6ZM11.1934 7.95994C10.8098 7.70422 10.3166 7.68038 9.91018 7.89791C9.50373 8.11543 9.25 8.53901 9.25 9V15C9.25 15.461 9.50373 15.8846 9.91018 16.1021C10.3166 16.3196 10.8098 16.2958 11.1934 16.0401L15.6934 13.0401C16.0411 12.8082 16.25 12.4179 16.25 12C16.25 11.5821 16.0411 11.1918 15.6934 10.9599L11.1934 7.95994Z" fill="#292929" stroke="#292929"/>
</svg>
