<svg width="24" height="24" viewBox="0 0 24 24" fill="none" xmlns="http://www.w3.org/2000/svg">
<path fill-rule="evenodd" clip-rule="evenodd" d="M2.24805 5.99844C2.24805 5.25285 2.85246 4.64844 3.59805 4.64844H3.60738C4.35297 4.64844 4.95738 5.25285 4.95738 5.99844C4.95738 6.74402 4.35297 7.34844 3.60738 7.34844H3.59805C2.85246 7.34844 2.24805 6.74402 2.24805 5.99844ZM7.50914 5.99844C7.50914 5.25285 8.11355 4.64844 8.85914 4.64844H20.4031C21.1487 4.64844 21.7531 5.25285 21.7531 5.99844C21.7531 6.74402 21.1487 7.34844 20.4031 7.34844H8.85914C8.11355 7.34844 7.50914 6.74402 7.50914 5.99844ZM2.24805 11.9984C2.24805 11.2529 2.85246 10.6484 3.59805 10.6484H3.60738C4.35297 10.6484 4.95738 11.2529 4.95738 11.9984C4.95738 12.744 4.35297 13.3484 3.60738 13.3484H3.59805C2.85246 13.3484 2.24805 12.744 2.24805 11.9984ZM7.50914 11.9984C7.50914 11.2529 8.11355 10.6484 8.85914 10.6484H20.4031C21.1487 10.6484 21.7531 11.2529 21.7531 11.9984C21.7531 12.744 21.1487 13.3484 20.4031 13.3484H8.85914C8.11355 13.3484 7.50914 12.744 7.50914 11.9984ZM2.24805 17.9984C2.24805 17.2529 2.85246 16.6484 3.59805 16.6484H3.60738C4.35297 16.6484 4.95738 17.2529 4.95738 17.9984C4.95738 18.744 4.35297 19.3484 3.60738 19.3484H3.59805C2.85246 19.3484 2.24805 18.744 2.24805 17.9984ZM7.50914 17.9984C7.50914 17.2529 8.11355 16.6484 8.85914 16.6484H20.4031C21.1487 16.6484 21.7531 17.2529 21.7531 17.9984C21.7531 18.744 21.1487 19.3484 20.4031 19.3484H8.85914C8.11355 19.3484 7.50914 18.744 7.50914 17.9984Z" fill="#292929"/>
</svg>
