<svg width="17" height="16" viewBox="0 0 17 16" fill="none" xmlns="http://www.w3.org/2000/svg">
<path fill-rule="evenodd" clip-rule="evenodd" d="M13.5 14.0449H3.5V13.0449H13.5V14.0449Z" fill="#65696C"/>
<path d="M14 2.47829C13.8708 2.49166 13.6837 2.52285 13.4386 2.57186C13.1981 2.61641 12.9953 2.6966 12.8305 2.81244C12.6612 2.92382 12.5409 3.12431 12.4696 3.4139C12.4028 3.70349 12.3694 4.13787 12.3694 4.71706V8.24561C12.3694 9.28368 12.0174 10.119 11.3135 10.7517C10.6096 11.3843 9.67841 11.7007 8.52005 11.7007C7.17011 11.7007 6.12535 11.3955 5.38578 10.7851C4.64621 10.1747 4.27643 9.32378 4.27643 8.23224V3.38048C4.27643 3.22455 4.24524 3.09089 4.18287 2.97951C4.12495 2.86813 4.01134 2.76789 3.84204 2.67878C3.7262 2.62086 3.58364 2.57408 3.41434 2.53844C3.24504 2.5028 3.10693 2.47829 3 2.46493V1.95703H7.97205V2.46493C7.82949 2.47384 7.68469 2.49166 7.53767 2.51839C7.39064 2.54067 7.24139 2.57631 7.08991 2.62532C6.92062 2.67878 6.80701 2.76789 6.74909 2.89263C6.69117 3.01738 6.66221 3.15772 6.66221 3.31365V8.09859C6.66221 9.03864 6.86938 9.72252 7.28372 10.1502C7.69806 10.5779 8.29951 10.7918 9.08809 10.7918C9.86331 10.7918 10.4714 10.5557 10.9125 10.0834C11.3536 9.61114 11.5741 8.91612 11.5741 7.99834V4.78388C11.5741 4.21361 11.534 3.78814 11.4538 3.50746C11.3781 3.22232 11.26 3.01738 11.0996 2.89263C10.9838 2.79462 10.7811 2.70551 10.4915 2.62532C10.2064 2.54512 10.0059 2.49612 9.89004 2.47829V1.95703H14V2.47829Z" fill="#65696C"/>
</svg>
