<svg width="25" height="24" viewBox="0 0 25 24" fill="none" xmlns="http://www.w3.org/2000/svg">
<path d="M20.1463 13.645L17.74 13.0019C17.3832 12.9065 16.9973 13.0102 16.7359 13.2716L15.0391 14.9685C12.7199 13.8192 10.8446 11.9439 9.69537 9.62475L11.3922 7.92788C11.6536 7.6665 11.7573 7.28066 11.6619 6.92386L11.0189 4.51753C10.8985 4.06531 10.4837 3.75 10.019 3.75H6.70406C6.04855 3.75 5.42207 4.03212 4.98644 4.52168C4.55911 5.00295 4.35582 5.64187 4.43465 6.27249C5.3059 13.6201 11.0479 19.3621 18.3955 20.2333C18.4826 20.2458 18.5697 20.2499 18.6569 20.2499C19.2004 20.2499 19.7356 20.0508 20.1463 19.6815C20.6358 19.2459 20.918 18.6194 20.918 17.9639V14.649C20.918 14.1802 20.6027 13.7694 20.1504 13.645H20.1463Z" fill="#292929"/>
</svg>
