<svg width="15" height="14" viewBox="0 0 15 14" fill="none" xmlns="http://www.w3.org/2000/svg">
<path fill-rule="evenodd" clip-rule="evenodd" d="M11.875 4.10083V1.75H12.75V5.10417C12.75 5.50667 12.4234 5.83333 12.0209 5.83333H8.6667V4.95833H11.3675C10.6209 3.54083 9.13628 2.625 7.50003 2.625C5.72378 2.625 4.13712 3.68667 3.45753 5.32583L2.64962 4.99042C3.46628 3.02167 5.36795 1.75 7.50003 1.75C9.28503 1.75 10.9184 2.66 11.875 4.10083ZM3.6325 9.04167C4.38208 10.4563 5.86958 11.375 7.5 11.375C9.27625 11.375 10.8629 10.3133 11.5425 8.67417L12.3504 9.00958C11.5337 10.9783 9.63208 12.25 7.5 12.25C5.72083 12.25 4.08458 11.3429 3.125 9.90208V12.25H2.25V8.89583C2.25 8.49333 2.57667 8.16667 2.97917 8.16667H6.33333V9.04167H3.6325Z" fill="#65696C"/>
</svg>
