<svg width="14" height="15" viewBox="0 0 14 15" fill="none" xmlns="http://www.w3.org/2000/svg">
<path d="M7.42512 4.86265L2.35525 9.93002L2.00526 11.9675C1.98526 12.0875 2.02276 12.21 2.11025 12.295C2.18025 12.365 2.27775 12.405 2.37525 12.405C2.39525 12.405 2.41775 12.405 2.43775 12.4L4.47519 12.05L9.54506 6.9801L7.42512 4.86015V4.86265Z" fill="#368BF9"/>
<path d="M11.56 2.8477C11.2775 2.56521 10.9 2.40771 10.5 2.40771C10.1 2.40771 9.72256 2.56271 9.44007 2.8477L7.9551 4.33267L10.075 6.45261L11.56 4.96765C11.8425 4.68516 12 4.30767 12 3.90768C12 3.50769 11.845 3.1302 11.56 2.8477Z" fill="#368BF9"/>
</svg>
