<svg width="19" height="19" viewBox="0 0 19 19" fill="none" xmlns="http://www.w3.org/2000/svg">
<g id="Clip path group">
<mask id="mask0_3663_22792" style="mask-type:luminance" maskUnits="userSpaceOnUse" x="0" y="0" width="19" height="19">
<g id="clip0_760_7197">
<path id="Vector" d="M18.5 0.5H0.5V18.5H18.5V0.5Z" fill="white"/>
</g>
</mask>
<g mask="url(#mask0_3663_22792)">
<g id="Group">
<path id="Vector_2" d="M18.14 9.70423C18.14 9.06604 18.0828 8.45242 17.9764 7.86328H9.5V11.3447H14.3436C14.135 12.4697 13.501 13.4229 12.5478 14.061V16.3192H15.4564C17.1582 14.7524 18.14 12.4451 18.14 9.70423Z" fill="#4285F4"/>
<path id="Vector_3" d="M9.49906 18.5C11.9291 18.5 13.9663 17.694 15.4553 16.3195L12.5467 14.0613C11.7409 14.6013 10.7099 14.9204 9.49906 14.9204C7.15492 14.9204 5.17087 13.3372 4.46311 11.21H1.4563V13.5418C2.93725 16.4832 5.98087 18.5 9.49906 18.5Z" fill="#34A853"/>
<path id="Vector_4" d="M4.46405 11.2098C4.28405 10.6698 4.18181 10.093 4.18181 9.49982C4.18181 8.90663 4.28405 8.32982 4.46405 7.78982V5.45801H1.45724C0.84776 6.67301 0.5 8.04758 0.5 9.49982C0.5 10.9521 0.84776 12.3266 1.45724 13.5416L4.46405 11.2098Z" fill="#FBBC04"/>
<path id="Vector_5" d="M9.49906 4.07957C10.8203 4.07957 12.0067 4.53362 12.9395 5.42543L15.5209 2.84405C13.9623 1.39181 11.9249 0.5 9.49906 0.5C5.98087 0.5 2.93725 2.51681 1.4563 5.45819L4.46311 7.79C5.17087 5.66276 7.15492 4.07957 9.49906 4.07957Z" fill="#E94235"/>
</g>
</g>
</g>
</svg>
