<svg width="17" height="16" viewBox="0 0 17 16" fill="none" xmlns="http://www.w3.org/2000/svg">
<path fill-rule="evenodd" clip-rule="evenodd" d="M13.7207 4.68667V2H14.7207V5.83333C14.7207 6.29333 14.3474 6.66667 13.8874 6.66667H10.0541V5.66667H13.1407C12.2874 4.04667 10.5907 3 8.72074 3C6.69074 3 4.87741 4.21333 4.10074 6.08667L3.17741 5.70333C4.11074 3.45333 6.28408 2 8.72074 2C10.7607 2 12.6274 3.04 13.7207 4.68667ZM4.3007 10.3333C5.15737 11.95 6.85737 13 8.7207 13C10.7507 13 12.564 11.7867 13.3407 9.91333L14.264 10.2967C13.3307 12.5467 11.1574 14 8.7207 14C6.68737 14 4.81737 12.9633 3.7207 11.3167V14H2.7207V10.1667C2.7207 9.70667 3.09404 9.33333 3.55404 9.33333H7.38737V10.3333H4.3007Z" fill="white"/>
</svg>
