<svg width="24" height="24" viewBox="0 0 24 24" fill="none" xmlns="http://www.w3.org/2000/svg">
<path d="M10.4145 11.3386C10.2267 10.8049 10.0388 10.2712 9.85095 9.73741C9.84628 9.7372 9.84161 9.73694 9.83694 9.73668L9.82526 9.73608L9.26006 11.342C9.37793 11.3693 10.3388 11.3652 10.4145 11.3386Z" fill="#292929"/>
<path fill-rule="evenodd" clip-rule="evenodd" d="M6.10003 17.1899C6.25508 17.2758 6.41132 17.3594 6.5732 17.4474C6.57132 17.4569 6.56985 17.4656 6.56852 17.4731C6.56617 17.4865 6.56423 17.4974 6.56115 17.508C6.49756 17.7294 6.43374 17.9507 6.36992 18.1721C6.2333 18.6458 6.09669 19.1195 5.96238 19.594C5.8424 20.0178 5.72706 20.443 5.6117 20.8682L5.55878 21.0632C5.5462 21.1095 5.54058 21.1597 5.54272 21.2076C5.54914 21.3478 5.64854 21.4319 5.78834 21.412C5.84934 21.4031 5.91033 21.3821 5.96679 21.3567C6.04599 21.321 6.12291 21.2793 6.19728 21.2343C6.99772 20.7508 7.76739 20.2208 8.53699 19.6908L8.56109 19.6742C8.98279 19.3839 9.4025 19.0905 9.82217 18.7971C9.9249 18.7253 10.0276 18.6535 10.1304 18.5817C10.1703 18.5539 10.2084 18.5466 10.2572 18.5536C10.764 18.6265 11.2743 18.6609 11.7857 18.672C12.179 18.6804 12.5721 18.6628 12.9648 18.634C13.3886 18.603 13.8095 18.552 14.2275 18.478C15.4848 18.2554 16.6808 17.8554 17.8028 17.241C18.7957 16.6973 19.6798 16.0175 20.4236 15.1603C21.1246 14.3523 21.6436 13.4443 21.9445 12.4144C22.1034 11.8703 22.1791 11.3142 22.1999 10.7497C22.2025 10.6785 22.1984 10.607 22.1944 10.5355C22.1914 10.4818 22.1883 10.4281 22.1881 10.3745C22.1873 10.1407 22.1585 9.91012 22.1249 9.67949C22.0079 8.8743 21.7397 8.12115 21.3473 7.41053C20.9052 6.60976 20.328 5.91707 19.6484 5.30879C19.004 4.73195 18.2891 4.25679 17.5191 3.86456C16.9034 3.55099 16.2624 3.30029 15.6009 3.1019C15.0464 2.93563 14.4818 2.81322 13.9098 2.72653C13.4072 2.65041 12.9013 2.60466 12.3933 2.59196C11.9302 2.58032 11.466 2.58072 11.0044 2.62339C10.6203 2.65885 10.237 2.70848 9.85577 2.76734C9.1172 2.88118 8.39908 3.07742 7.6973 3.33307C6.91231 3.61908 6.16772 3.98736 5.46968 4.44648C4.77712 4.90198 4.14973 5.43401 3.60165 6.05847C3.18387 6.53444 2.82576 7.05081 2.53559 7.61347C2.31165 8.04784 2.13787 8.50227 2.01079 8.97463C1.89761 9.39575 1.82725 9.82477 1.80532 10.2591C1.79402 10.4823 1.80229 10.7067 1.81054 10.9308C1.81256 10.9852 1.81457 11.0396 1.81629 11.0939C1.82659 11.4179 1.8817 11.7368 1.95367 12.052C2.14029 12.8686 2.47272 13.6233 2.9325 14.3224C3.32901 14.9252 3.80178 15.4618 4.33969 15.942C4.87974 16.4242 5.46674 16.8395 6.10003 17.1899ZM17.0863 11.4181C17.0706 11.3984 17.0545 11.378 17.0378 11.3568C16.977 11.4174 16.9187 11.467 16.8713 11.5259C16.8505 11.5517 16.8446 11.5955 16.8444 11.6313C16.8436 11.8127 16.8437 11.9942 16.8438 12.1756C16.8438 12.3813 16.8439 12.587 16.8427 12.7927C16.8414 13.0267 16.757 13.2201 16.5493 13.3464C16.1702 13.577 15.6718 13.3072 15.6573 12.8635C15.6571 12.8568 15.6571 12.85 15.6572 12.8433C15.6572 12.836 15.6573 12.8288 15.6573 12.8216L15.6573 11.4893C15.6572 10.6011 15.6572 9.71286 15.6573 8.82467C15.6573 8.54588 15.8298 8.3182 16.0952 8.24396C16.4303 8.15031 16.7792 8.37746 16.8288 8.72327C16.8376 8.78494 16.8423 8.84768 16.8426 8.91001C16.8436 9.16897 16.8434 9.42792 16.8433 9.68688C16.8433 9.7732 16.8432 9.85952 16.8432 9.94584V10.0673C16.8648 10.0474 16.8822 10.0319 16.8971 10.0183C16.9106 10.0061 16.9223 9.99531 16.9334 9.9841C17.3683 9.54799 17.8031 9.11162 18.2377 8.67524C18.2614 8.65146 18.2849 8.62755 18.3085 8.60365C18.3556 8.55576 18.4028 8.50787 18.4508 8.46093C18.6389 8.27713 18.8773 8.24984 19.099 8.39151C19.2848 8.5103 19.3878 8.67805 19.3831 8.90467C19.3804 9.03402 19.3284 9.13918 19.2379 9.22934C18.8404 9.62585 18.4436 10.0233 18.0466 10.4203C18.0049 10.4619 17.9635 10.5037 17.9165 10.5508C17.9246 10.5619 17.9322 10.5727 17.9396 10.583C17.9555 10.6054 17.9703 10.6262 17.9857 10.6465L18.2592 11.0091C18.6168 11.4831 18.9744 11.957 19.3328 12.4304C19.4282 12.5565 19.4873 12.6924 19.481 12.854C19.4719 13.0897 19.3058 13.3114 19.0773 13.3871C18.8405 13.4656 18.5779 13.3884 18.4305 13.1936C18.1767 12.8584 17.9235 12.5228 17.6702 12.1872C17.506 11.9696 17.3418 11.7521 17.1775 11.5347C17.1484 11.4962 17.1183 11.4584 17.0863 11.4181ZM10.7399 12.4333C10.7367 12.4264 10.7333 12.4191 10.7299 12.4114H8.94395C8.93199 12.4414 8.91983 12.4715 8.90762 12.5016C8.88257 12.5635 8.85734 12.6259 8.83332 12.6888C8.7738 12.8447 8.7172 13.0018 8.65714 13.1575C8.62062 13.2521 8.55815 13.3242 8.46316 13.3661C8.21876 13.4736 7.97957 13.4495 7.74935 13.3287C7.6371 13.2699 7.58586 13.1617 7.57182 13.0374C7.55029 12.8471 7.58761 12.6644 7.65397 12.488C7.81004 12.073 7.96761 11.6586 8.12517 11.2441C8.18396 11.0895 8.24273 10.9349 8.30143 10.7803C8.36846 10.6038 8.43553 10.4272 8.5026 10.2507C8.68258 9.7769 8.86255 9.30317 9.04188 8.82922C9.15264 8.53639 9.35237 8.33626 9.65497 8.25117C9.92693 8.17479 10.1621 8.26295 10.3692 8.44006C10.4933 8.54628 10.5772 8.67979 10.6353 8.83336C10.8343 9.36013 11.0343 9.8866 11.2342 10.4131C11.4406 10.9565 11.647 11.4999 11.8524 12.0436C11.9346 12.2612 12.0126 12.4809 12.0807 12.7032C12.1192 12.8292 12.1295 12.9622 12.0944 13.0946C12.0609 13.2208 11.9899 13.3117 11.8668 13.3606C11.6589 13.443 11.4492 13.4641 11.2375 13.3776C11.1372 13.3365 11.0631 13.2679 11.0235 13.1626C10.9571 12.986 10.8886 12.8103 10.8202 12.6345C10.799 12.5801 10.7778 12.5258 10.7567 12.4714C10.7518 12.4589 10.7461 12.4466 10.7399 12.4333ZM5.7573 9.38051L5.64172 9.38037C5.38005 9.38037 5.11852 9.38104 4.85685 9.3801C4.59144 9.37903 4.37018 9.21542 4.2918 8.96406C4.18879 8.63431 4.42343 8.27124 4.76723 8.22977C4.81886 8.22362 4.8713 8.22041 4.92348 8.22041C5.43698 8.22012 5.95053 8.2201 6.46406 8.22009C6.90628 8.22007 7.34849 8.22006 7.79068 8.21987C7.92525 8.21974 8.05448 8.23847 8.17046 8.31298C8.39762 8.45893 8.48056 8.69919 8.42143 8.94868C8.36244 9.19777 8.12953 9.37609 7.86921 9.37957C7.68451 9.38199 7.49975 9.38143 7.31496 9.38087C7.23461 9.38062 7.15427 9.38037 7.07391 9.38037H6.94736C6.94589 9.42572 6.94348 9.46585 6.94348 9.50612C6.94344 9.80509 6.94306 10.1041 6.94268 10.403C6.94168 11.2133 6.94066 12.0236 6.94642 12.8338C6.94869 13.1469 6.72904 13.3909 6.43488 13.4342C6.10351 13.4828 5.77656 13.2189 5.77055 12.9203C5.7697 12.878 5.76702 12.8356 5.76434 12.7933C5.76109 12.742 5.75783 12.6908 5.75783 12.6395C5.75712 11.8406 5.75718 11.0415 5.75725 10.2425L5.7573 9.38051ZM13.6201 12.1341V12.2687L14.2853 12.2686C14.3447 12.2686 14.4041 12.2684 14.4635 12.2682C14.5993 12.2678 14.7352 12.2674 14.871 12.2691C15.1177 12.2721 15.334 12.425 15.4043 12.6494C15.5053 12.9718 15.3 13.2672 14.999 13.3353C14.9418 13.3483 14.882 13.356 14.8234 13.3562C14.2237 13.3576 13.6241 13.3575 13.0244 13.3568C12.8391 13.3566 12.6741 13.3051 12.5475 13.1606C12.4616 13.0627 12.4131 12.9506 12.4131 12.8193C12.4131 12.4314 12.4131 12.0434 12.4132 11.6555C12.4133 10.7047 12.4134 9.75384 12.4123 8.80299C12.4121 8.52836 12.647 8.21345 13.0368 8.22416C13.3498 8.23285 13.6226 8.4996 13.6214 8.84995C13.6187 9.63713 13.6192 10.4244 13.6197 11.2116C13.6199 11.5191 13.6201 11.8266 13.6201 12.1341Z" fill="#292929"/>
</svg>
