<svg width="25" height="24" viewBox="0 0 25 24" fill="none" xmlns="http://www.w3.org/2000/svg">
<path d="M8.16914 6.19922C4.96846 6.19922 2.36914 8.79853 2.36914 11.9992C2.36914 15.1999 4.96846 17.7992 8.16914 17.7992H9.96914V15.6992H8.16914C6.12983 15.6992 4.46914 14.0385 4.46914 11.9992C4.46914 9.9599 6.12983 8.29922 8.16914 8.29922H9.96914V6.19922H8.16914Z" fill="#292929"/>
<path d="M17.1691 6.19922H15.3691V8.29922H17.1691C19.2085 8.29922 20.8691 9.9599 20.8691 11.9992C20.8691 14.0385 19.2085 15.6992 17.1691 15.6992H15.3691V17.7992H17.1691C20.3698 17.7992 22.9691 15.1999 22.9691 11.9992C22.9691 8.79853 20.3698 6.19922 17.1691 6.19922Z" fill="#292929"/>
<path d="M16.4691 10.9492H8.86914V13.0492H16.4691V10.9492Z" fill="#292929"/>
</svg>
