<svg width="24" height="24" viewBox="0 0 24 24" fill="none" xmlns="http://www.w3.org/2000/svg">
<path d="M15 4H4C3.44772 4 3 4.44772 3 5V10C3 10.5523 3.44772 11 4 11H15C15.5523 11 16 10.5523 16 10V5C16 4.44772 15.5523 4 15 4Z" fill="#292929"/>
<path fill-rule="evenodd" clip-rule="evenodd" d="M23.2724 8.99935L20.2724 11.9994L23.2724 14.9994L21.9996 16.2721L18.3632 12.6358C18.0117 12.2843 18.0117 11.7144 18.3632 11.363L21.9996 7.72656L23.2724 8.99935Z" fill="#292929"/>
<path d="M15 13H4C3.44772 13 3 13.4477 3 14V19C3 19.5523 3.44772 20 4 20H15C15.5523 20 16 19.5523 16 19V14C16 13.4477 15.5523 13 15 13Z" fill="#292929"/>
</svg>
