<svg width="24" height="24" viewBox="0 0 24 24" fill="none" xmlns="http://www.w3.org/2000/svg">
<path fill-rule="evenodd" clip-rule="evenodd" d="M17.0049 7C17.0049 9.76142 14.7663 12 12.0049 12C9.24346 12 7.00488 9.76142 7.00488 7C7.00488 4.23858 9.24346 2 12.0049 2C14.7663 2 17.0049 4.23858 17.0049 7ZM20.0847 16.86L20.8654 19.4158C21.258 20.701 20.2965 22 18.9526 22H5.04684C3.70295 22 2.74149 20.701 3.13408 19.4158L3.91473 16.86C4.52973 14.85 6.35473 13.5 8.45973 13.5H15.5397C17.6447 13.5 19.4697 14.85 20.0847 16.86Z" fill="#EFF0F0"/>
</svg>
