<svg width="24" height="24" viewBox="0 0 24 24" fill="none" xmlns="http://www.w3.org/2000/svg">
<path fill-rule="evenodd" clip-rule="evenodd" d="M5.6582 3.78125H14.4082C15.7338 3.78125 16.8145 4.86187 16.8145 6.1875V11.8794C16.8145 13.205 15.7338 14.2856 14.4082 14.2856H7.24195L5.12008 16.4075C4.91008 16.6175 4.63008 16.7269 4.3457 16.7269C4.2057 16.7269 4.06133 16.7006 3.9257 16.6437C3.51883 16.4731 3.25195 16.075 3.25195 15.6331V6.1875C3.25195 4.86187 4.33258 3.78125 5.6582 3.78125ZM18.127 7.71875H18.3413C19.667 7.71875 20.7476 8.79937 20.7476 10.125V19.1287C20.7476 19.575 20.4851 19.9687 20.0738 20.1394C19.9382 20.1962 19.7938 20.2225 19.6538 20.2225C19.3738 20.2225 19.0938 20.1131 18.8838 19.9031L17.1995 18.2187H11.7832C10.4576 18.2187 9.37695 17.1381 9.37695 15.8125V15.5894H14.4082C16.4601 15.5894 18.127 13.9225 18.127 11.8706V7.71875Z" fill="#292929"/>
</svg>
