<svg width="16" height="17" viewBox="0 0 16 17" fill="none" xmlns="http://www.w3.org/2000/svg">
<path d="M14.5202 14.1375L10.7735 10.3908C11.5402 9.46747 12.0002 8.2808 12.0002 6.9908C12.0002 4.0508 9.60683 1.65747 6.66683 1.65747C3.72683 1.65747 1.3335 4.0508 1.3335 6.9908C1.3335 9.9308 3.72683 12.3241 6.66683 12.3241C7.95683 12.3241 9.1435 11.8641 10.0668 11.0975L13.8135 14.8441L14.5202 14.1375ZM6.66683 11.3241C4.27683 11.3241 2.3335 9.3808 2.3335 6.9908C2.3335 4.6008 4.27683 2.65747 6.66683 2.65747C9.05683 2.65747 11.0002 4.6008 11.0002 6.9908C11.0002 9.3808 9.05683 11.3241 6.66683 11.3241Z" fill="#3B3D3F"/>
</svg>
