<svg width="17" height="16" viewBox="0 0 17 16" fill="none" xmlns="http://www.w3.org/2000/svg">
<path d="M4.25 3C3.83579 3 3.5 3.33579 3.5 3.75V5.5C3.5 5.77614 3.27614 6 3 6C2.72386 6 2.5 5.77614 2.5 5.5V3.75C2.5 2.7835 3.2835 2 4.25 2H6C6.27614 2 6.5 2.22386 6.5 2.5C6.5 2.77614 6.27614 3 6 3H4.25ZM10.5 2.5C10.5 2.22386 10.7239 2 11 2H12.75C13.7165 2 14.5 2.7835 14.5 3.75V5.5C14.5 5.77614 14.2761 6 14 6C13.7239 6 13.5 5.77614 13.5 5.5V3.75C13.5 3.33579 13.1642 3 12.75 3H11C10.7239 3 10.5 2.77614 10.5 2.5ZM3 10C3.27614 10 3.5 10.2239 3.5 10.5V12.25C3.5 12.6642 3.83579 13 4.25 13H6C6.27614 13 6.5 13.2239 6.5 13.5C6.5 13.7761 6.27614 14 6 14H4.25C3.2835 14 2.5 13.2165 2.5 12.25V10.5C2.5 10.2239 2.72386 10 3 10ZM14 10C14.2761 10 14.5 10.2239 14.5 10.5V12.25C14.5 13.2165 13.7165 14 12.75 14H11C10.7239 14 10.5 13.7761 10.5 13.5C10.5 13.2239 10.7239 13 11 13H12.75C13.1642 13 13.5 12.6642 13.5 12.25V10.5C13.5 10.2239 13.7239 10 14 10Z" fill="#65696C"/>
</svg>
