<svg width="25" height="24" viewBox="0 0 25 24" fill="none" xmlns="http://www.w3.org/2000/svg">
<path d="M12.334 2C7.92398 2 4.33398 5.59 4.33398 10C4.33398 11.865 4.99398 13.685 6.18898 15.12L11.374 21.345C11.614 21.63 11.964 21.795 12.334 21.795C12.704 21.795 13.054 21.63 13.294 21.345L18.479 15.12C19.674 13.685 20.334 11.87 20.334 10C20.334 5.59 16.744 2 12.334 2ZM12.334 13C10.679 13 9.33398 11.655 9.33398 10C9.33398 8.345 10.679 7 12.334 7C13.989 7 15.334 8.345 15.334 10C15.334 11.655 13.989 13 12.334 13Z" fill="#292929"/>
</svg>
