<svg width="17" height="16" viewBox="0 0 17 16" fill="none" xmlns="http://www.w3.org/2000/svg">
<path fill-rule="evenodd" clip-rule="evenodd" d="M6.50016 11.6673H5.50016C3.47683 11.6673 1.8335 10.024 1.8335 8.00065C1.8335 5.97732 3.47683 4.33398 5.50016 4.33398H6.50016V5.33398H5.50016C4.03016 5.33398 2.8335 6.53065 2.8335 8.00065C2.8335 9.47065 4.03016 10.6673 5.50016 10.6673H6.50016V11.6673ZM11.5002 11.6673H10.5002V10.6673H11.5002C12.9702 10.6673 14.1668 9.47065 14.1668 8.00065C14.1668 6.53065 12.9702 5.33398 11.5002 5.33398H10.5002V4.33398H11.5002C13.5235 4.33398 15.1668 5.97732 15.1668 8.00065C15.1668 10.024 13.5235 11.6673 11.5002 11.6673ZM5.16683 7.50065H11.8335V8.50065H5.16683V7.50065Z" fill="#fff"/>
</svg>
