<svg width="24" height="25" viewBox="0 0 24 25" fill="none" xmlns="http://www.w3.org/2000/svg">
<path fill-rule="evenodd" clip-rule="evenodd" d="M20.25 11.9896H12.9167V4.65625H19.1042C19.7367 4.65625 20.25 5.16958 20.25 5.80208V11.9896ZM14.2917 10.6146H18.875V6.03125H14.2917V10.6146Z" fill="#505254"/>
<path fill-rule="evenodd" clip-rule="evenodd" d="M4.89583 21.1562H11.0833V13.8229H3.75V20.0104C3.75 20.6429 4.26333 21.1562 4.89583 21.1562ZM9.70833 19.7812H5.125V15.1979H9.70833V19.7812Z" fill="#505254"/>
<path fill-rule="evenodd" clip-rule="evenodd" d="M12.9167 21.1562H19.1042C19.7367 21.1562 20.25 20.6429 20.25 20.0104V13.8229H12.9167V21.1562ZM18.875 19.7812H14.2917V15.1979H18.875V19.7812Z" fill="#505254"/>
<path fill-rule="evenodd" clip-rule="evenodd" d="M3.75 11.9896H11.0833V4.65625H4.89583C4.26333 4.65625 3.75 5.16958 3.75 5.80208V11.9896ZM9.70833 10.6146H5.125V6.03125H9.70833V10.6146Z" fill="#505254"/>
</svg>
