<svg width="17" height="16" viewBox="0 0 17 16" fill="none" xmlns="http://www.w3.org/2000/svg">
<g clip-path="url(#clip0_29_14857)">
<path d="M12.25 -5C11.8358 -5 11.5 -4.66421 11.5 -4.25V-2.5C11.5 -2.22386 11.2761 -2 11 -2C10.7239 -2 10.5 -2.22386 10.5 -2.5V-4.25C10.5 -5.2165 11.2835 -6 12.25 -6H14C14.2761 -6 14.5 -5.77614 14.5 -5.5C14.5 -5.22386 14.2761 -5 14 -5H12.25ZM18.5 -5.5C18.5 -5.77614 18.7239 -6 19 -6H20.75C21.7165 -6 22.5 -5.2165 22.5 -4.25V-2.5C22.5 -2.22386 22.2761 -2 22 -2C21.7239 -2 21.5 -2.22386 21.5 -2.5V-4.25C21.5 -4.66421 21.1642 -5 20.75 -5H19C18.7239 -5 18.5 -5.22386 18.5 -5.5ZM11 2C11.2761 2 11.5 2.22386 11.5 2.5V4.25C11.5 4.66421 11.8358 5 12.25 5H14C14.2761 5 14.5 5.22386 14.5 5.5C14.5 5.77614 14.2761 6 14 6H12.25C11.2835 6 10.5 5.2165 10.5 4.25V2.5C10.5 2.22386 10.7239 2 11 2ZM22 2C22.2761 2 22.5 2.22386 22.5 2.5V4.25C22.5 5.2165 21.7165 6 20.75 6H19C18.7239 6 18.5 5.77614 18.5 5.5C18.5 5.22386 18.7239 5 19 5H20.75C21.1642 5 21.5 4.66421 21.5 4.25V2.5C21.5 2.22386 21.7239 2 22 2Z" fill="#65696C"/>
<path d="M12.25 11C11.8358 11 11.5 11.3358 11.5 11.75V13.5C11.5 13.7761 11.2761 14 11 14C10.7239 14 10.5 13.7761 10.5 13.5V11.75C10.5 10.7835 11.2835 10 12.25 10H14C14.2761 10 14.5 10.2239 14.5 10.5C14.5 10.7761 14.2761 11 14 11H12.25ZM18.5 10.5C18.5 10.2239 18.7239 10 19 10H20.75C21.7165 10 22.5 10.7835 22.5 11.75V13.5C22.5 13.7761 22.2761 14 22 14C21.7239 14 21.5 13.7761 21.5 13.5V11.75C21.5 11.3358 21.1642 11 20.75 11H19C18.7239 11 18.5 10.7761 18.5 10.5ZM11 18C11.2761 18 11.5 18.2239 11.5 18.5V20.25C11.5 20.6642 11.8358 21 12.25 21H14C14.2761 21 14.5 21.2239 14.5 21.5C14.5 21.7761 14.2761 22 14 22H12.25C11.2835 22 10.5 21.2165 10.5 20.25V18.5C10.5 18.2239 10.7239 18 11 18ZM22 18C22.2761 18 22.5 18.2239 22.5 18.5V20.25C22.5 21.2165 21.7165 22 20.75 22H19C18.7239 22 18.5 21.7761 18.5 21.5C18.5 21.2239 18.7239 21 19 21H20.75C21.1642 21 21.5 20.6642 21.5 20.25V18.5C21.5 18.2239 21.7239 18 22 18Z" fill="#65696C"/>
<path d="M-3.75 -5C-4.16421 -5 -4.5 -4.66421 -4.5 -4.25V-2.5C-4.5 -2.22386 -4.72386 -2 -5 -2C-5.27614 -2 -5.5 -2.22386 -5.5 -2.5V-4.25C-5.5 -5.2165 -4.7165 -6 -3.75 -6H-2C-1.72386 -6 -1.5 -5.77614 -1.5 -5.5C-1.5 -5.22386 -1.72386 -5 -2 -5H-3.75ZM2.5 -5.5C2.5 -5.77614 2.72386 -6 3 -6H4.75C5.7165 -6 6.5 -5.2165 6.5 -4.25V-2.5C6.5 -2.22386 6.27614 -2 6 -2C5.72386 -2 5.5 -2.22386 5.5 -2.5V-4.25C5.5 -4.66421 5.16421 -5 4.75 -5H3C2.72386 -5 2.5 -5.22386 2.5 -5.5ZM-5 2C-4.72386 2 -4.5 2.22386 -4.5 2.5V4.25C-4.5 4.66421 -4.16421 5 -3.75 5H-2C-1.72386 5 -1.5 5.22386 -1.5 5.5C-1.5 5.77614 -1.72386 6 -2 6H-3.75C-4.7165 6 -5.5 5.2165 -5.5 4.25V2.5C-5.5 2.22386 -5.27614 2 -5 2ZM6 2C6.27614 2 6.5 2.22386 6.5 2.5V4.25C6.5 5.2165 5.7165 6 4.75 6H3C2.72386 6 2.5 5.77614 2.5 5.5C2.5 5.22386 2.72386 5 3 5H4.75C5.16421 5 5.5 4.66421 5.5 4.25V2.5C5.5 2.22386 5.72386 2 6 2Z" fill="#65696C"/>
<path d="M-3.75 11C-4.16421 11 -4.5 11.3358 -4.5 11.75V13.5C-4.5 13.7761 -4.72386 14 -5 14C-5.27614 14 -5.5 13.7761 -5.5 13.5V11.75C-5.5 10.7835 -4.7165 10 -3.75 10H-2C-1.72386 10 -1.5 10.2239 -1.5 10.5C-1.5 10.7761 -1.72386 11 -2 11H-3.75ZM2.5 10.5C2.5 10.2239 2.72386 10 3 10H4.75C5.7165 10 6.5 10.7835 6.5 11.75V13.5C6.5 13.7761 6.27614 14 6 14C5.72386 14 5.5 13.7761 5.5 13.5V11.75C5.5 11.3358 5.16421 11 4.75 11H3C2.72386 11 2.5 10.7761 2.5 10.5ZM-5 18C-4.72386 18 -4.5 18.2239 -4.5 18.5V20.25C-4.5 20.6642 -4.16421 21 -3.75 21H-2C-1.72386 21 -1.5 21.2239 -1.5 21.5C-1.5 21.7761 -1.72386 22 -2 22H-3.75C-4.7165 22 -5.5 21.2165 -5.5 20.25V18.5C-5.5 18.2239 -5.27614 18 -5 18ZM6 18C6.27614 18 6.5 18.2239 6.5 18.5V20.25C6.5 21.2165 5.7165 22 4.75 22H3C2.72386 22 2.5 21.7761 2.5 21.5C2.5 21.2239 2.72386 21 3 21H4.75C5.16421 21 5.5 20.6642 5.5 20.25V18.5C5.5 18.2239 5.72386 18 6 18Z" fill="#65696C"/>
</g>
<defs>
<clipPath id="clip0_29_14857">
<rect width="16" height="16" fill="white" transform="translate(0.5)"/>
</clipPath>
</defs>
</svg>
