<svg width="101" height="80" viewBox="0 0 101 80" fill="none" xmlns="http://www.w3.org/2000/svg">
<path d="M10 32C10 29.7909 11.7909 28 14 28H36V52H14C11.7909 52 10 50.2091 10 48V32Z" fill="#EFF0F0"/>
<path fill-rule="evenodd" clip-rule="evenodd" d="M18.8333 34H27.1667C28.1767 34 29 34.8233 29 35.8333V44.1667C29 45.1767 28.1767 46 27.1667 46H18.8333C17.8233 46 17 45.1767 17 44.1667V35.8333C17 34.8233 17.8233 34 18.8333 34ZM27.1667 35H18.8333C18.3733 35 18 35.3733 18 35.8333V43.2933L20.5767 40.7167C20.9033 40.3933 21.4333 40.3933 21.7567 40.7167L22.6667 41.6267L25.41 38.8833C25.7367 38.56 26.2667 38.56 26.59 38.8833L28 40.2933V35.8333C28 35.3733 27.6267 35 27.1667 35ZM22 37.6667C22 38.403 21.403 39 20.6667 39C19.9303 39 19.3333 38.403 19.3333 37.6667C19.3333 36.9303 19.9303 36.3333 20.6667 36.3333C21.403 36.3333 22 36.9303 22 37.6667Z" fill="#CCCFD1"/>
<path d="M36 28H86C88.2091 28 90 29.7909 90 32V48C90 50.2091 88.2091 52 86 52H36V28Z" fill="#CCCFD1"/>
<path d="M54.4859 44.1289C52.6343 44.1289 51.5093 42.7578 51.5093 40.8477C51.5093 38.9023 52.6695 37.5547 54.4624 37.5547C55.9155 37.5547 56.9702 38.4102 57.0991 39.6992H55.8804C55.7515 39.1016 55.271 38.5977 54.4859 38.5977C53.4546 38.5977 52.7632 39.4531 52.7632 40.8125C52.7632 42.207 53.4429 43.0625 54.4859 43.0625C55.189 43.0625 55.728 42.6758 55.8804 41.9844H57.0991C56.9585 43.2148 55.9859 44.1289 54.4859 44.1289ZM59.2966 35.5156V44H58.0427V35.5156H59.2966ZM60.5801 44V37.6367H61.834V44H60.5801ZM61.2129 36.6523C60.7793 36.6523 60.416 36.3242 60.416 35.9141C60.416 35.5039 60.7793 35.1758 61.2129 35.1758C61.6348 35.1758 61.998 35.5039 61.998 35.9141C61.998 36.3242 61.6348 36.6523 61.2129 36.6523ZM65.8127 44.1289C63.9612 44.1289 62.8362 42.7578 62.8362 40.8477C62.8362 38.9023 63.9963 37.5547 65.7893 37.5547C67.2424 37.5547 68.2971 38.4102 68.426 39.6992H67.2073C67.0784 39.1016 66.5979 38.5977 65.8127 38.5977C64.7815 38.5977 64.0901 39.4531 64.0901 40.8125C64.0901 42.207 64.7698 43.0625 65.8127 43.0625C66.5159 43.0625 67.0549 42.6758 67.2073 41.9844H68.426C68.2854 43.2148 67.3127 44.1289 65.8127 44.1289ZM69.3696 44V35.5156H70.6235V40.3203H70.729L73.2485 37.6367H74.7485L72.1821 40.3672L74.9243 44H73.3891L71.2329 41.1406L70.6235 41.7383V44H69.3696Z" fill="#EFF0F0"/>
</svg>
