<svg width="25" height="25" viewBox="0 0 25 25" fill="none" xmlns="http://www.w3.org/2000/svg">
<path d="M7.4363 18.8358C4.8643 18.8358 2.7793 16.8288 2.7793 14.3528C2.7793 11.8778 4.8643 9.87082 7.4363 9.87082C7.8293 8.10882 9.23029 6.67082 11.1113 6.09782C12.9913 5.52582 15.0673 5.90482 16.5553 7.09782C18.0433 8.28782 18.7173 10.1048 18.3253 11.8668H19.3153C21.2283 11.8668 22.7793 13.4268 22.7793 15.3528C22.7793 17.2798 21.2283 18.8398 19.3143 18.8398H7.4363" fill="#A7ABAE"/>
<path fill-rule="evenodd" clip-rule="evenodd" d="M17.024 6.51225C15.3351 5.15838 13.0001 4.73912 10.893 5.38022C8.97659 5.964 7.46531 7.36155 6.86022 9.15025C4.16625 9.42768 2.0293 11.6283 2.0293 14.3527C2.0293 17.2421 4.43125 19.5419 7.3526 19.5851C7.38007 19.5882 7.408 19.5897 7.4363 19.5897H19.3143C21.6469 19.5897 23.5293 17.6896 23.5293 15.3527C23.5293 13.0169 21.6469 11.1167 19.3153 11.1167H19.1795C19.261 9.36515 18.4694 7.66829 17.024 6.51225Z" fill="#A7ABAE"/>
<path d="M8.57715 13.5039L9.45215 12.6289L11.2334 14.3789L15.098 10.5352L15.9834 11.4102L11.2334 16.1393L8.57715 13.5039Z" fill="#EFF3F6"/>
</svg>
