<svg width="15" height="15" viewBox="0 0 15 15" fill="none" xmlns="http://www.w3.org/2000/svg">
<path fill-rule="evenodd" clip-rule="evenodd" d="M9.83333 3.68229V3.82812H12.75V4.70312H2.25V3.82812H5.16667V3.68229C5.16667 2.79854 5.88708 2.07812 6.77083 2.07812H8.22917C9.11292 2.07812 9.83333 2.79854 9.83333 3.68229ZM6.04167 3.82812H8.95833V3.68229C8.95833 3.27979 8.63167 2.95312 8.22917 2.95312H6.77083C6.36833 2.95312 6.04167 3.27979 6.04167 3.68229V3.82812ZM2.83333 12.1406V5.57812H12.1667V12.1406C12.1667 13.0244 11.4462 13.7448 10.5625 13.7448H4.4375C3.55375 13.7448 2.83333 13.0244 2.83333 12.1406Z" fill="#A7ABAE"/>
</svg>
