<svg width="15" height="15" viewBox="0 0 15 15" fill="none" xmlns="http://www.w3.org/2000/svg">
<path fill-rule="evenodd" clip-rule="evenodd" d="M10.1536 3.27067V3.4165H13.0703V4.2915H2.57031V3.4165H5.48698V3.27067C5.48698 2.38692 6.2074 1.6665 7.09115 1.6665H8.54948C9.43323 1.6665 10.1536 2.38692 10.1536 3.27067ZM6.36198 3.4165H9.27865V3.27067C9.27865 2.86817 8.95198 2.5415 8.54948 2.5415H7.09115C6.68865 2.5415 6.36198 2.86817 6.36198 3.27067V3.4165ZM3.15365 11.729V5.1665H12.487V11.729C12.487 12.6128 11.7666 13.3332 10.8828 13.3332H4.75781C3.87406 13.3332 3.15365 12.6128 3.15365 11.729Z" fill="#65696C"/>
</svg>
