<svg width="120" height="32" viewBox="0 0 120 32" fill="none" xmlns="http://www.w3.org/2000/svg">
<path d="M31.2732 16.148C31.2732 9.06926 35.9408 3.07324 43.8066 3.07324C50.7034 3.07324 54.8342 7.31322 55.7668 12.6996H49.516C48.7608 10.5796 47.1822 8.45965 43.8748 8.45965C39.8532 8.45965 37.4466 11.9444 37.4466 16.1435C37.4466 20.3425 39.8532 23.8273 43.8748 23.8273C47.1776 23.8273 48.7608 21.7073 49.516 19.5873H55.7668C54.8342 24.9737 50.7034 29.2137 43.8066 29.2137C35.9408 29.2137 31.2732 23.2177 31.2732 16.1389V16.148Z" fill="#6C4CFF"/>
<path d="M68.3414 28.7177V26.1655C67.4088 27.9261 65.6482 29.1453 62.8458 29.1453C57.7824 29.1453 53.9746 24.8371 53.9746 19.3052C53.9746 13.7732 57.746 9.46495 62.8094 9.46495C65.5754 9.46495 67.2632 10.6842 68.1594 12.4448V3.57812H74.1918V28.7177H68.3368H68.3414ZM64.247 14.4601C61.7312 14.4601 60.2618 16.8303 60.2618 19.3097C60.2618 21.7891 61.7358 24.1593 64.247 24.1593C66.7582 24.1593 68.1594 22.1485 68.1594 19.3097C68.1594 16.4709 66.6854 14.4601 64.247 14.4601Z" fill="#6C4CFF"/>
<path d="M76.7207 3.57812H88.8265C93.6397 3.57812 96.5467 6.16214 96.5467 10.0791C96.5467 12.8087 95.2911 14.6785 92.7025 15.6475C95.7915 16.3299 97.5157 18.6273 97.5157 21.6435C97.5157 26.0609 94.1037 28.7177 88.5353 28.7177H76.7207V3.57812ZM87.5663 13.3819C89.2541 13.3819 90.4051 12.4857 90.4051 10.9389C90.4051 9.53774 89.3633 8.60513 87.4617 8.60513H82.7577V13.3819H87.5708H87.5663ZM88.1805 23.6907C90.0821 23.6907 91.415 22.7581 91.415 21.0339C91.415 19.4189 90.2277 18.4135 88.0758 18.4135H82.7622V23.6953H88.185L88.1805 23.6907Z" fill="#6C4CFF"/>
<path d="M110.081 28.7177V26.1655C109.149 27.9261 107.388 29.1453 104.586 29.1453C99.5224 29.1453 95.9648 24.8371 95.9648 19.3052C95.9648 13.7732 99.486 9.46495 104.549 9.46495C107.315 9.46495 109.003 10.6842 109.899 12.4448V3.57812H115.932V28.7177H110.077H110.081ZM105.987 14.4601C103.471 14.4601 102.002 16.8303 102.002 19.3097C102.002 21.7891 103.476 24.1593 105.987 24.1593C108.498 24.1593 109.904 22.1485 109.904 19.3097C109.904 16.4709 108.43 14.4601 105.987 14.4601Z" fill="#6C4CFF"/>
<path d="M86.9572 28.7305L85.8426 23.9856L84.7325 28.7305H84.6006L83.486 23.9856L82.3714 28.7305L82.2395 28.6987L83.4178 23.6717H83.5543L84.6643 28.4166L85.7789 23.6717H85.9108L87.0254 28.4166L88.1354 23.6717H88.2674L89.3683 28.3393L90.1644 23.1849L90.2964 23.1758L91.9205 28.3256L91.7931 28.3666L90.2554 23.4942L89.4502 28.7032L89.3183 28.7078L88.2037 23.9856L87.0891 28.7305H86.9572Z" fill="#141414"/>
<path d="M37.46 16.0885L31.3457 14.3461L31.3594 14.2142L37.5555 13.6182L32.4967 10.1698L32.5467 10.047L38.5109 11.3072L34.876 6.63956L34.9624 6.53947L40.135 9.51018L38.6519 4.06009L38.7748 4.00095L42.2186 8.49568L42.9829 3.06379L43.1148 3.05469L44.6161 8.26367L46.2266 3.25031L46.3585 3.29125L44.6798 8.51843H44.5478L43.0739 3.40044L42.3278 8.67311L42.2049 8.70495L38.8748 4.3558L40.3079 9.63302L40.2123 9.71035L35.199 6.83063L38.7338 11.3709L38.6656 11.4755L32.8561 10.2517L37.7875 13.6137L37.7557 13.7365L31.7324 14.3143L37.5009 15.9566L37.46 16.0885Z" fill="#141414"/>
<path d="M89.9231 16.7212V14.7695L90.0095 14.7923C90.0095 14.7923 91.6382 15.2063 92.73 15.5839L92.8938 15.6385L92.7391 15.7112C91.7565 16.1571 90.0323 16.6939 90.0186 16.6984L89.9322 16.7257L89.9231 16.7212ZM90.0596 14.9424V16.5347C90.4008 16.4255 91.6655 16.0206 92.5162 15.6521C91.5882 15.3427 90.3871 15.0288 90.0596 14.9424Z" fill="#141414"/>
<path d="M43.8062 29.286C40.0485 29.286 36.8458 27.9349 34.5392 25.3781C32.3874 22.9943 31.2046 19.7142 31.2046 16.143C31.2046 12.5718 32.3874 9.29172 34.5392 6.90787C36.8458 4.35115 40.0485 3 43.8062 3C50.1889 3 54.7974 6.71225 55.8347 12.681L55.8483 12.7629H49.4701L49.4519 12.7174C48.4602 9.93318 46.5859 8.52288 43.879 8.52288C40.1349 8.52288 37.5191 11.6574 37.5191 16.143C37.5191 20.6286 40.1349 23.7586 43.879 23.7586C46.5859 23.7586 48.4647 22.3483 49.4519 19.5641L49.4701 19.5186H55.8483L55.8347 19.6005C54.802 25.5738 50.1889 29.2815 43.8062 29.2815V29.286ZM43.8062 3.14103C40.0894 3.14103 36.9185 4.47398 34.6393 7.00341C32.5102 9.36451 31.3411 12.6082 31.3411 16.1476C31.3411 19.6869 32.5148 22.9306 34.6393 25.2917C36.9185 27.8166 40.0894 29.1541 43.8062 29.1541C50.0889 29.1541 54.6336 25.5192 55.6845 19.6642H49.5657C48.8605 21.6068 47.3047 23.9042 43.879 23.9042C40.053 23.9042 37.3826 20.7151 37.3826 16.1521C37.3826 11.5891 40.053 8.3955 43.879 8.3955C47.3047 8.3955 48.8605 10.6884 49.5657 12.6355H55.6845C54.6382 6.77594 50.0934 3.14103 43.8062 3.14103Z" fill="#141414"/>
<path d="M62.8502 29.218C60.389 29.218 58.1235 28.199 56.463 26.3474C54.8161 24.5095 53.9062 22.0073 53.9062 19.3096C53.9062 13.6593 57.7322 9.40115 62.8093 9.40115C65.2386 9.40115 67.0584 10.3611 68.0911 12.1808V3.50977H74.2599V28.7858H68.2685V26.4293C67.4905 27.7531 65.9301 29.218 62.8411 29.218H62.8502ZM62.8138 9.53308C57.8141 9.53308 54.0473 13.7321 54.0473 19.305C54.0473 21.9709 54.9435 24.4412 56.5676 26.2519C58.2008 28.0716 60.43 29.077 62.8502 29.077C65.2705 29.077 67.2631 28.0579 68.2821 26.1336L68.4095 26.1654V28.6448H74.128V3.64625H68.2321V12.4492L68.1047 12.481C67.1221 10.5567 65.2932 9.53763 62.8138 9.53763V9.53308ZM64.2469 24.2229C61.6128 24.2229 60.1934 21.6889 60.1934 19.305C60.1934 16.9212 61.6128 14.3872 64.2469 14.3872C66.6671 14.3872 68.2275 16.3161 68.2275 19.305C68.2275 22.2939 66.6626 24.2229 64.2469 24.2229ZM64.2469 14.5282C61.7038 14.5282 60.3299 16.9894 60.3299 19.3096C60.3299 21.6297 61.7038 24.0909 64.2469 24.0909C66.5852 24.0909 68.0911 22.2166 68.0911 19.3096C68.0911 16.4026 66.5807 14.5282 64.2469 14.5282Z" fill="#141414"/>
<path d="M88.5357 28.7858H76.6528V3.50977H88.8268C91.1834 3.50977 93.1578 4.13302 94.5362 5.30675C95.8965 6.47138 96.6153 8.11824 96.6153 10.079C96.6153 12.7722 95.3779 14.642 92.9349 15.6292C95.851 16.3616 97.5888 18.5908 97.5888 21.6434C97.5888 23.8271 96.7472 25.6422 95.1595 26.8933C93.5809 28.1353 91.2926 28.7904 88.5402 28.7904L88.5357 28.7858ZM76.7893 28.6494H88.5357C94.1177 28.6494 97.4478 26.0289 97.4478 21.6434C97.4478 18.5862 95.669 16.3707 92.6892 15.7111L92.4663 15.661L92.6801 15.5791C95.2004 14.6329 96.4788 12.7813 96.4788 10.0744C96.4788 6.10743 93.5445 3.6417 88.8268 3.6417H76.7893V28.6448V28.6494ZM88.1808 23.7588H82.6898V18.3406H88.0716C90.2053 18.3406 91.4791 19.346 91.4791 21.0292C91.4791 22.7125 90.2144 23.7543 88.1808 23.7543V23.7588ZM82.8217 23.6223H88.1763C90.1279 23.6223 91.3426 22.6306 91.3426 21.0338C91.3426 19.437 90.1507 18.4816 88.0716 18.4816H82.8263V23.6223H82.8217ZM87.5667 13.45H82.6852V8.53677H87.4575C89.3455 8.53677 90.4691 9.43299 90.4691 10.9388C90.4691 12.4446 89.3546 13.45 87.5621 13.45H87.5667ZM82.8217 13.3136H87.5667C89.2727 13.3136 90.3372 12.4037 90.3372 10.9388C90.3372 9.47393 89.2636 8.67325 87.462 8.67325H82.8263V13.3136H82.8217Z" fill="#141414"/>
<path d="M104.586 29.218C102.143 29.218 99.9181 28.199 98.3258 26.3474C96.7609 24.5277 95.8965 22.0301 95.8965 19.3096C95.8965 16.5891 96.7518 14.087 98.3076 12.2718C99.8908 10.4202 102.106 9.40115 104.549 9.40115C106.992 9.40115 108.798 10.3611 109.831 12.1808V3.50977H116V28.7858H110.009V26.4293C109.231 27.7531 107.67 29.218 104.581 29.218H104.586ZM104.554 9.53308C99.6178 9.53308 96.0375 13.6411 96.0375 19.305C96.0375 21.9937 96.8882 24.4594 98.4305 26.2564C99.9954 28.0761 102.184 29.077 104.586 29.077C107.12 29.077 108.999 28.0579 110.022 26.1336L110.15 26.1654V28.6448H115.868V3.64625H109.972V12.4492L109.845 12.481C108.862 10.5567 107.033 9.53763 104.554 9.53763V9.53308ZM105.987 24.2229C103.353 24.2229 101.933 21.6889 101.933 19.305C101.933 16.9212 103.353 14.3872 105.987 14.3872C108.407 14.3872 109.972 16.3161 109.972 19.305C109.972 22.2939 108.407 24.2229 105.987 24.2229ZM105.987 14.5282C103.444 14.5282 102.07 16.9894 102.07 19.3096C102.07 21.6297 103.444 24.0909 105.987 24.0909C108.325 24.0909 109.836 22.2166 109.836 19.3096C109.836 16.4026 108.325 14.5282 105.987 14.5282Z" fill="#141414"/>
<path d="M68.2317 12.4435L68.0952 12.4453L68.2748 26.1649L68.4113 26.1631L68.2317 12.4435Z" fill="#141414"/>
<path d="M109.973 12.4425L109.836 12.4443L110.016 26.1639L110.152 26.1621L109.973 12.4425Z" fill="#141414"/>
<path d="M26.0645 4.375H19.7637L15.087 8.27377V4.375H8.78619L4.07764 8.30107V12.2271H8.78619L4.07764 16.1487V20.0747H8.78619L4.07764 23.9963V27.9223H10.3557L15.0552 24.0235V27.9223H21.3332L26.0645 23.9963V20.0702H21.3332L26.0645 16.1441V12.218H21.3332L26.0645 8.29197V4.375ZM15.0552 12.2226H10.3557L15.0552 8.32382V12.2226ZM15.0552 20.0702H10.3557L15.0552 16.1714V20.0702ZM15.087 20.0702H19.7637L15.087 23.969V20.0702ZM15.087 12.2226H19.7637L15.087 16.1214V12.2226Z" fill="#6C4CFF"/>
<path d="M21.3648 27.9989H14.9775V24.1911L10.3873 27.9989H4V23.9591L4.0273 23.9363L8.56752 20.1513H4V16.1115L4.0273 16.0887L8.56752 12.3037H4V8.26389L4.0273 8.24114L8.7586 4.29688H15.1686V8.10466L19.7361 4.29688H26.1461V8.33668L26.1188 8.35943L21.5559 12.1445H26.1461V16.1843L26.1188 16.207L21.5559 19.9921H26.1461V24.0319L26.1188 24.0546L21.3648 27.9989ZM15.1368 27.8396H21.3056L25.9869 23.9591V20.1513H21.1146L25.9869 16.1115V12.3037H21.1146L25.9869 8.26389V4.4561H19.7953L15.1368 8.33668V12.1445H19.9863L15.1368 16.1843V19.9921H19.9863L15.1368 24.0319V27.8396ZM4.15923 27.8396H10.3281L15.0094 23.9591V20.1513H10.137L15.0094 16.1115V12.3037H10.137L15.0094 8.26389V4.4561H8.81774L4.15923 8.33668V12.1445H9.00881L4.15923 16.1843V19.9921H9.00881L4.15923 24.0319V27.8396ZM15.1686 20.1513V23.7998L19.5451 20.1513H15.1686ZM10.5783 19.9921H14.9775V16.3435L10.5783 19.9921ZM15.1686 12.3037V15.9523L19.5451 12.3037H15.1686ZM10.5783 12.1445H14.9775V8.4959L10.5783 12.1445Z" fill="#141414"/>
</svg>
