<svg width="36" height="36" viewBox="0 0 36 36" fill="none" xmlns="http://www.w3.org/2000/svg">
<path d="M33.8827 0.988281H24.7778L18.0219 6.61743V0.988281H8.92133L2.11328 6.66093V12.3292H8.91698L2.11328 18.0019V23.6702H8.91698L2.11328 29.3428V35.0111H11.1878L17.9784 29.382V35.0111H27.0529L33.8871 29.3428V23.6745H27.0529L33.8871 18.0062V12.3379H27.0529L33.8871 6.66963V0.988281H33.8827ZM17.9784 12.3292H11.1878L17.9784 6.70008V12.3292ZM17.9784 23.6702H11.1878L17.9784 18.041V23.6702ZM18.0219 23.6702H24.7778L18.0219 29.2993V23.6702ZM18.0219 12.3292H24.7778L18.0219 17.9584V12.3292Z" fill="#6C4CFF"/>
<path d="M27.0919 35.1241H17.8651V29.6211L11.2311 35.1241H2V29.2861L2.0435 29.2513L8.60359 23.7831H2V17.9451L2.0435 17.9103L8.60359 12.4422H2V6.6042L2.0435 6.5694L8.87765 0.875H18.1392V6.37364L24.7384 0.875H34V6.71296L33.9565 6.74776L27.366 12.2159H34V18.0539L33.9565 18.0887L27.366 23.5569H34V29.3948L33.9565 29.4296L27.0875 35.1241H27.0919ZM18.0914 34.8978H27.0092L33.7694 29.2904V23.7875H26.7308L33.7694 17.9495V12.4465H26.7308L33.7694 6.60855V1.10556H24.8211L18.0914 6.71296V12.2159H25.0995L18.0914 18.0539V23.5569H25.0995L18.0914 29.3948V34.8978ZM2.23056 34.8978H11.1485L17.9086 29.2904V23.7875H10.87L17.9086 17.9495V12.4465H10.87L17.9086 6.60855V1.10556H8.9603L2.23056 6.71296V12.2159H9.23872L2.23056 18.0539V23.5569H9.23872L2.23056 29.3948V34.8978ZM18.1392 23.7875V29.0599L24.4644 23.7875H18.1392ZM11.5052 23.5569H17.8608V18.2845L11.5052 23.5569ZM18.1392 12.4465V17.7146L24.4644 12.4465H18.1392ZM11.5052 12.2159H17.8608V6.94352L11.5052 12.2159Z" fill="#141414"/>
</svg>
